<svg width="1920" height="746" viewBox="0 0 1920 746" fill="none" xmlns="http://www.w3.org/2000/svg">
<g filter="url(#filter0_i_76_939)">
<path d="M2423.72 666.246L2646.79 698.906C2666.44 701.782 2681 718.631 2681 738.484V761C2681 783.091 2663.09 801 2641 801H666C643.909 801 626 783.091 626 761V713.061C626 694.833 638.323 678.911 655.969 674.34L795.604 638.166C805.992 635.475 817.026 637.071 826.226 642.595L917.065 697.137C924.397 701.539 932.947 703.475 941.46 702.662L1142 683.5L1287.53 666.465C1290.17 666.156 1292.84 666.111 1295.49 666.331L1406.25 675.522C1410.06 675.839 1413.9 675.606 1417.65 674.831L1559.5 645.5L1710.67 633.426C1714.21 633.143 1717.77 633.332 1721.25 633.988L1973.33 681.414C1975.77 681.872 1978.25 682.103 1980.73 682.103H2192.5L2415.03 665.929C2417.93 665.718 2420.84 665.824 2423.72 666.246Z" fill="white" fill-opacity="0.8"/>
</g>
<g opacity="0.7" filter="url(#filter1_bii_76_939)">
<path d="M844.279 38.3896C844.279 36.1805 846.07 34.3896 848.279 34.3896H1072.73C1074.94 34.3896 1076.73 36.1805 1076.73 38.3896V40.5043C1076.73 42.7134 1074.94 44.5043 1072.73 44.5043H848.279C846.07 44.5043 844.279 42.7134 844.279 40.5043V38.3896Z" fill="black" fill-opacity="0.02"/>
<path d="M848.279 34.8896H1072.73C1074.66 34.8896 1076.23 36.4567 1076.23 38.3896V40.5043C1076.23 42.4373 1074.66 44.0043 1072.73 44.0043H848.279C846.346 44.0043 844.779 42.4373 844.779 40.5043V38.3896C844.779 36.4567 846.346 34.8896 848.279 34.8896Z" stroke="#13C41A"/>
</g>
<g filter="url(#filter2_bdii_76_939)">
<path d="M723 174.504C723 102.707 781.203 44.5044 853 44.5044H1067C1138.8 44.5044 1197 102.707 1197 174.504V696C1197 701.523 1192.52 706 1187 706H733C727.477 706 723 701.523 723 696V174.504Z" fill="black" fill-opacity="0.05" shape-rendering="crispEdges"/>
<path d="M853 45.0044H1067C1138.52 45.0044 1196.5 102.984 1196.5 174.504V696C1196.5 701.247 1192.25 705.5 1187 705.5H733C727.753 705.5 723.5 701.247 723.5 696V174.504C723.5 102.983 781.479 45.0044 853 45.0044Z" stroke="#00FF09" shape-rendering="crispEdges"/>
</g>
<g filter="url(#filter3_bii_76_939)">
<path d="M834.172 12C834.172 5.37258 839.545 0 846.172 0H1073.83C1080.45 0 1085.83 5.37258 1085.83 12V22.3897C1085.83 29.0171 1080.45 34.3897 1073.83 34.3897H846.172C839.545 34.3897 834.172 29.0171 834.172 22.3897V12Z" fill="black" fill-opacity="0.05"/>
<path d="M846.172 0.5H1073.83C1080.18 0.5 1085.33 5.64873 1085.33 12V22.3897C1085.33 28.741 1080.18 33.8897 1073.83 33.8897H846.172C839.821 33.8897 834.672 28.741 834.672 22.3897V12C834.672 5.64872 839.821 0.5 846.172 0.5Z" stroke="#00FF09"/>
</g>
<g filter="url(#filter4_d_76_939)">
<path d="M853.735 296L854.658 316.902L873.221 307.25L855.58 318.5L873.221 329.75L854.658 320.098L853.735 341L852.813 320.098L834.25 329.75L851.89 318.5L834.25 307.25L852.813 316.902L853.735 296Z" fill="white"/>
</g>
<g filter="url(#filter5_d_76_939)">
<path d="M723.735 563L724.658 583.902L743.221 574.25L725.58 585.5L743.221 596.75L724.658 587.098L723.735 608L722.813 587.098L704.25 596.75L721.89 585.5L704.25 574.25L722.813 583.902L723.735 563Z" fill="white"/>
</g>
<g filter="url(#filter6_d_76_939)">
<path d="M711.486 148.014L722.736 165.655L733.986 148.014L724.333 166.577L745.236 167.5L724.333 168.422L733.986 186.986L722.736 169.345L711.486 186.986L721.138 168.422L700.236 167.5L721.138 166.577L711.486 148.014Z" fill="white"/>
</g>
<g filter="url(#filter7_d_76_939)">
<path d="M1196.74 495L1197.66 515.902L1216.22 506.25L1198.58 517.5L1216.22 528.75L1197.66 519.098L1196.74 540L1195.81 519.098L1177.25 528.75L1194.89 517.5L1177.25 506.25L1195.81 515.902L1196.74 495Z" fill="white"/>
</g>
<g filter="url(#filter8_d_76_939)">
<path d="M1072.74 15L1073.66 35.9022L1092.22 26.25L1074.58 37.5L1092.22 48.75L1073.66 39.0978L1072.74 60L1071.81 39.0978L1053.25 48.75L1070.89 37.5L1053.25 26.25L1071.81 35.9022L1072.74 15Z" fill="white"/>
</g>
<g filter="url(#filter9_i_76_939)">
<path d="M-311.719 676.246L-534.795 708.906C-554.438 711.782 -569 728.631 -569 748.484V771C-569 793.091 -551.091 811 -529 811H1460.46C1474.56 811 1486 799.565 1486 785.459C1486 772.403 1476.15 761.448 1463.17 760.062L1331.5 746L1183.65 713.914L970 693.5L824.473 676.465C821.831 676.156 819.165 676.111 816.514 676.331L705.754 685.522C701.938 685.839 698.096 685.606 694.346 684.831L552.5 655.5L401.328 643.426C397.792 643.143 394.234 643.332 390.747 643.988L138.666 691.414C136.227 691.872 133.751 692.103 131.27 692.103H-80.5L-303.025 675.929C-305.926 675.718 -308.841 675.824 -311.719 676.246Z" fill="#D9D9D9"/>
</g>
<defs>
<filter id="filter0_i_76_939" x="626" y="633.299" width="2055" height="171.701" filterUnits="userSpaceOnUse" color-interpolation-filters="sRGB">
<feFlood flood-opacity="0" result="BackgroundImageFix"/>
<feBlend mode="normal" in="SourceGraphic" in2="BackgroundImageFix" result="shape"/>
<feColorMatrix in="SourceAlpha" type="matrix" values="0 0 0 0 0 0 0 0 0 0 0 0 0 0 0 0 0 0 127 0" result="hardAlpha"/>
<feOffset dy="4"/>
<feGaussianBlur stdDeviation="17"/>
<feComposite in2="hardAlpha" operator="arithmetic" k2="-1" k3="1"/>
<feColorMatrix type="matrix" values="0 0 0 0 1 0 0 0 0 0.735159 0 0 0 0 0.878173 0 0 0 0.4 0"/>
<feBlend mode="normal" in2="shape" result="effect1_innerShadow_76_939"/>
</filter>
<filter id="filter1_bii_76_939" x="764.279" y="-45.6104" width="392.452" height="170.115" filterUnits="userSpaceOnUse" color-interpolation-filters="sRGB">
<feFlood flood-opacity="0" result="BackgroundImageFix"/>
<feGaussianBlur in="BackgroundImageFix" stdDeviation="40"/>
<feComposite in2="SourceAlpha" operator="in" result="effect1_backgroundBlur_76_939"/>
<feBlend mode="normal" in="SourceGraphic" in2="effect1_backgroundBlur_76_939" result="shape"/>
<feColorMatrix in="SourceAlpha" type="matrix" values="0 0 0 0 0 0 0 0 0 0 0 0 0 0 0 0 0 0 127 0" result="hardAlpha"/>
<feOffset/>
<feGaussianBlur stdDeviation="27"/>
<feComposite in2="hardAlpha" operator="arithmetic" k2="-1" k3="1"/>
<feColorMatrix type="matrix" values="0 0 0 0 1 0 0 0 0 1 0 0 0 0 1 0 0 0 0.5 0"/>
<feBlend mode="normal" in2="shape" result="effect2_innerShadow_76_939"/>
<feColorMatrix in="SourceAlpha" type="matrix" values="0 0 0 0 0 0 0 0 0 0 0 0 0 0 0 0 0 0 127 0" result="hardAlpha"/>
<feOffset dx="-20" dy="5"/>
<feGaussianBlur stdDeviation="15"/>
<feComposite in2="hardAlpha" operator="arithmetic" k2="-1" k3="1"/>
<feColorMatrix type="matrix" values="0 0 0 0 0.0750018 0 0 0 0 0.768495 0 0 0 0 0.102741 0 0 0 0.6 0"/>
<feBlend mode="normal" in2="effect2_innerShadow_76_939" result="effect3_innerShadow_76_939"/>
</filter>
<filter id="filter2_bdii_76_939" x="673" y="-5.49561" width="574" height="761.496" filterUnits="userSpaceOnUse" color-interpolation-filters="sRGB">
<feFlood flood-opacity="0" result="BackgroundImageFix"/>
<feGaussianBlur in="BackgroundImageFix" stdDeviation="25"/>
<feComposite in2="SourceAlpha" operator="in" result="effect1_backgroundBlur_76_939"/>
<feColorMatrix in="SourceAlpha" type="matrix" values="0 0 0 0 0 0 0 0 0 0 0 0 0 0 0 0 0 0 127 0" result="hardAlpha"/>
<feOffset dy="14"/>
<feGaussianBlur stdDeviation="17"/>
<feComposite in2="hardAlpha" operator="out"/>
<feColorMatrix type="matrix" values="0 0 0 0 1 0 0 0 0 0.735159 0 0 0 0 0.878173 0 0 0 0.5 0"/>
<feBlend mode="normal" in2="effect1_backgroundBlur_76_939" result="effect2_dropShadow_76_939"/>
<feBlend mode="normal" in="SourceGraphic" in2="effect2_dropShadow_76_939" result="shape"/>
<feColorMatrix in="SourceAlpha" type="matrix" values="0 0 0 0 0 0 0 0 0 0 0 0 0 0 0 0 0 0 127 0" result="hardAlpha"/>
<feOffset/>
<feGaussianBlur stdDeviation="20"/>
<feComposite in2="hardAlpha" operator="arithmetic" k2="-1" k3="1"/>
<feColorMatrix type="matrix" values="0 0 0 0 1 0 0 0 0 1 0 0 0 0 1 0 0 0 0.9 0"/>
<feBlend mode="normal" in2="shape" result="effect3_innerShadow_76_939"/>
<feColorMatrix in="SourceAlpha" type="matrix" values="0 0 0 0 0 0 0 0 0 0 0 0 0 0 0 0 0 0 127 0" result="hardAlpha"/>
<feOffset dx="-30" dy="5"/>
<feGaussianBlur stdDeviation="15"/>
<feComposite in2="hardAlpha" operator="arithmetic" k2="-1" k3="1"/>
<feColorMatrix type="matrix" values="0 0 0 0 0.0750018 0 0 0 0 0.768495 0 0 0 0 0.102741 0 0 0 0.4 0"/>
<feBlend mode="normal" in2="effect3_innerShadow_76_939" result="effect4_innerShadow_76_939"/>
</filter>
<filter id="filter3_bii_76_939" x="784.172" y="-50" width="351.655" height="134.39" filterUnits="userSpaceOnUse" color-interpolation-filters="sRGB">
<feFlood flood-opacity="0" result="BackgroundImageFix"/>
<feGaussianBlur in="BackgroundImageFix" stdDeviation="25"/>
<feComposite in2="SourceAlpha" operator="in" result="effect1_backgroundBlur_76_939"/>
<feBlend mode="normal" in="SourceGraphic" in2="effect1_backgroundBlur_76_939" result="shape"/>
<feColorMatrix in="SourceAlpha" type="matrix" values="0 0 0 0 0 0 0 0 0 0 0 0 0 0 0 0 0 0 127 0" result="hardAlpha"/>
<feOffset/>
<feGaussianBlur stdDeviation="22"/>
<feComposite in2="hardAlpha" operator="arithmetic" k2="-1" k3="1"/>
<feColorMatrix type="matrix" values="0 0 0 0 1 0 0 0 0 1 0 0 0 0 1 0 0 0 0.8 0"/>
<feBlend mode="normal" in2="shape" result="effect2_innerShadow_76_939"/>
<feColorMatrix in="SourceAlpha" type="matrix" values="0 0 0 0 0 0 0 0 0 0 0 0 0 0 0 0 0 0 127 0" result="hardAlpha"/>
<feOffset dx="-20" dy="5"/>
<feGaussianBlur stdDeviation="15"/>
<feComposite in2="hardAlpha" operator="arithmetic" k2="-1" k3="1"/>
<feColorMatrix type="matrix" values="0 0 0 0 0.0750018 0 0 0 0 0.768495 0 0 0 0 0.102741 0 0 0 0.3 0"/>
<feBlend mode="normal" in2="effect2_innerShadow_76_939" result="effect3_innerShadow_76_939"/>
</filter>
<filter id="filter4_d_76_939" x="823.25" y="285" width="60.9707" height="67" filterUnits="userSpaceOnUse" color-interpolation-filters="sRGB">
<feFlood flood-opacity="0" result="BackgroundImageFix"/>
<feColorMatrix in="SourceAlpha" type="matrix" values="0 0 0 0 0 0 0 0 0 0 0 0 0 0 0 0 0 0 127 0" result="hardAlpha"/>
<feOffset/>
<feGaussianBlur stdDeviation="5.5"/>
<feComposite in2="hardAlpha" operator="out"/>
<feColorMatrix type="matrix" values="0 0 0 0 1 0 0 0 0 1 0 0 0 0 1 0 0 0 1 0"/>
<feBlend mode="normal" in2="BackgroundImageFix" result="effect1_dropShadow_76_939"/>
<feBlend mode="normal" in="SourceGraphic" in2="effect1_dropShadow_76_939" result="shape"/>
</filter>
<filter id="filter5_d_76_939" x="693.25" y="552" width="60.9707" height="67" filterUnits="userSpaceOnUse" color-interpolation-filters="sRGB">
<feFlood flood-opacity="0" result="BackgroundImageFix"/>
<feColorMatrix in="SourceAlpha" type="matrix" values="0 0 0 0 0 0 0 0 0 0 0 0 0 0 0 0 0 0 127 0" result="hardAlpha"/>
<feOffset/>
<feGaussianBlur stdDeviation="5.5"/>
<feComposite in2="hardAlpha" operator="out"/>
<feColorMatrix type="matrix" values="0 0 0 0 1 0 0 0 0 1 0 0 0 0 1 0 0 0 1 0"/>
<feBlend mode="normal" in2="BackgroundImageFix" result="effect1_dropShadow_76_939"/>
<feBlend mode="normal" in="SourceGraphic" in2="effect1_dropShadow_76_939" result="shape"/>
</filter>
<filter id="filter6_d_76_939" x="689.235" y="137.014" width="67" height="60.9712" filterUnits="userSpaceOnUse" color-interpolation-filters="sRGB">
<feFlood flood-opacity="0" result="BackgroundImageFix"/>
<feColorMatrix in="SourceAlpha" type="matrix" values="0 0 0 0 0 0 0 0 0 0 0 0 0 0 0 0 0 0 127 0" result="hardAlpha"/>
<feOffset/>
<feGaussianBlur stdDeviation="5.5"/>
<feComposite in2="hardAlpha" operator="out"/>
<feColorMatrix type="matrix" values="0 0 0 0 1 0 0 0 0 1 0 0 0 0 1 0 0 0 1 0"/>
<feBlend mode="normal" in2="BackgroundImageFix" result="effect1_dropShadow_76_939"/>
<feBlend mode="normal" in="SourceGraphic" in2="effect1_dropShadow_76_939" result="shape"/>
</filter>
<filter id="filter7_d_76_939" x="1166.25" y="484" width="60.9707" height="67" filterUnits="userSpaceOnUse" color-interpolation-filters="sRGB">
<feFlood flood-opacity="0" result="BackgroundImageFix"/>
<feColorMatrix in="SourceAlpha" type="matrix" values="0 0 0 0 0 0 0 0 0 0 0 0 0 0 0 0 0 0 127 0" result="hardAlpha"/>
<feOffset/>
<feGaussianBlur stdDeviation="5.5"/>
<feComposite in2="hardAlpha" operator="out"/>
<feColorMatrix type="matrix" values="0 0 0 0 1 0 0 0 0 1 0 0 0 0 1 0 0 0 1 0"/>
<feBlend mode="normal" in2="BackgroundImageFix" result="effect1_dropShadow_76_939"/>
<feBlend mode="normal" in="SourceGraphic" in2="effect1_dropShadow_76_939" result="shape"/>
</filter>
<filter id="filter8_d_76_939" x="1042.25" y="4" width="60.9707" height="67" filterUnits="userSpaceOnUse" color-interpolation-filters="sRGB">
<feFlood flood-opacity="0" result="BackgroundImageFix"/>
<feColorMatrix in="SourceAlpha" type="matrix" values="0 0 0 0 0 0 0 0 0 0 0 0 0 0 0 0 0 0 127 0" result="hardAlpha"/>
<feOffset/>
<feGaussianBlur stdDeviation="5.5"/>
<feComposite in2="hardAlpha" operator="out"/>
<feColorMatrix type="matrix" values="0 0 0 0 1 0 0 0 0 1 0 0 0 0 1 0 0 0 1 0"/>
<feBlend mode="normal" in2="BackgroundImageFix" result="effect1_dropShadow_76_939"/>
<feBlend mode="normal" in="SourceGraphic" in2="effect1_dropShadow_76_939" result="shape"/>
</filter>
<filter id="filter9_i_76_939" x="-569" y="643.299" width="2055" height="171.701" filterUnits="userSpaceOnUse" color-interpolation-filters="sRGB">
<feFlood flood-opacity="0" result="BackgroundImageFix"/>
<feBlend mode="normal" in="SourceGraphic" in2="BackgroundImageFix" result="shape"/>
<feColorMatrix in="SourceAlpha" type="matrix" values="0 0 0 0 0 0 0 0 0 0 0 0 0 0 0 0 0 0 127 0" result="hardAlpha"/>
<feOffset dy="4"/>
<feGaussianBlur stdDeviation="17"/>
<feComposite in2="hardAlpha" operator="arithmetic" k2="-1" k3="1"/>
<feColorMatrix type="matrix" values="0 0 0 0 1 0 0 0 0 0.735159 0 0 0 0 0.878173 0 0 0 0.4 0"/>
<feBlend mode="normal" in2="shape" result="effect1_innerShadow_76_939"/>
</filter>
</defs>
</svg>
