<svg width="254" height="256" viewBox="0 0 254 256" fill="none" xmlns="http://www.w3.org/2000/svg">
<g filter="url(#filter0_b_21_5)">
<path d="M55.1113 65.4527L13.0089 115.99C10.482 119.023 10.5454 123.446 13.1581 126.405L106.712 232.372C109.435 235.457 114.055 235.973 117.392 233.563L149.629 210.286C150.493 209.663 151.473 209.218 152.511 208.978L180.207 202.575C182.849 201.964 185.002 200.056 185.926 197.507L213.184 122.312C214.039 119.952 213.738 117.328 212.37 115.224L153.019 23.9371C151.176 21.1025 147.75 19.7325 144.461 20.5149L96.841 31.8409C95.6493 32.1244 94.5386 32.6777 93.5946 33.4582L56.1602 64.4077C55.779 64.7228 55.4279 65.0727 55.1113 65.4527Z" fill="#13C41A"/>
<path d="M55.1113 65.4527L13.0089 115.99C10.482 119.023 10.5454 123.446 13.1581 126.405L106.712 232.372C109.435 235.457 114.055 235.973 117.392 233.563L149.629 210.286C150.493 209.663 151.473 209.218 152.511 208.978L180.207 202.575C182.849 201.964 185.002 200.056 185.926 197.507L213.184 122.312C214.039 119.952 213.738 117.328 212.37 115.224L153.019 23.9371C151.176 21.1025 147.75 19.7325 144.461 20.5149L96.841 31.8409C95.6493 32.1244 94.5386 32.6777 93.5946 33.4582L56.1602 64.4077C55.779 64.7228 55.4279 65.0727 55.1113 65.4527Z" stroke="url(#paint0_linear_21_5)" stroke-width="1.5"/>
</g>
<defs>
<filter id="filter0_b_21_5" x="-79.5947" y="-70.4528" width="384.008" height="396.28" filterUnits="userSpaceOnUse" color-interpolation-filters="sRGB">
<feFlood flood-opacity="0" result="BackgroundImageFix"/>
<feGaussianBlur in="BackgroundImageFix" stdDeviation="45"/>
<feComposite in2="SourceAlpha" operator="in" result="effect1_backgroundBlur_21_5"/>
<feBlend mode="normal" in="SourceGraphic" in2="effect1_backgroundBlur_21_5" result="shape"/>
</filter>
<linearGradient id="paint0_linear_21_5" x1="59.7281" y1="183.082" x2="193.791" y2="72.2429" gradientUnits="userSpaceOnUse">
<stop stop-color="#13C41A"/>
<stop offset="1" stop-color="white" stop-opacity="0.7"/>
</linearGradient>
</defs>
</svg>
