<svg width="227" height="241" viewBox="0 0 227 241" fill="none" xmlns="http://www.w3.org/2000/svg">
<g filter="url(#filter0_b_70_262)">
<path d="M46.7235 51.8622L5.57463 101.255C-0.742445 108.838 -0.583974 119.895 5.94783 127.293L99.3957 233.14C106.205 240.853 117.755 242.141 126.097 236.119L152.879 216.78C155.039 215.221 157.487 214.109 160.082 213.509L183.593 208.073C190.198 206.546 195.58 201.777 197.89 195.403L224.956 120.739C227.094 114.841 226.341 108.281 222.921 103.021L162.707 10.4075C158.1 3.32097 149.535 -0.103951 141.312 1.85189L97.2149 12.3401C94.2356 13.0487 91.4589 14.4319 89.0988 16.3832L49.3459 49.2497C48.3929 50.0376 47.515 50.9122 46.7235 51.8622Z" fill="url(#paint0_radial_70_262)"/>
<path d="M46.7235 51.8622L5.57463 101.255C-0.742445 108.838 -0.583974 119.895 5.94783 127.293L99.3957 233.14C106.205 240.853 117.755 242.141 126.097 236.119L152.879 216.78C155.039 215.221 157.487 214.109 160.082 213.509L183.593 208.073C190.198 206.546 195.58 201.777 197.89 195.403L224.956 120.739C227.094 114.841 226.341 108.281 222.921 103.021L162.707 10.4075C158.1 3.32097 149.535 -0.103951 141.312 1.85189L97.2149 12.3401C94.2356 13.0487 91.4589 14.4319 89.0988 16.3832L49.3459 49.2497C48.3929 50.0376 47.515 50.9122 46.7235 51.8622Z" stroke="#13C41A"/>
</g>
<defs>
<filter id="filter0_b_70_262" x="-89.5591" y="-89.1921" width="406.212" height="419.596" filterUnits="userSpaceOnUse" color-interpolation-filters="sRGB">
<feFlood flood-opacity="0" result="BackgroundImageFix"/>
<feGaussianBlur in="BackgroundImageFix" stdDeviation="45"/>
<feComposite in2="SourceAlpha" operator="in" result="effect1_backgroundBlur_70_262"/>
<feBlend mode="normal" in="SourceGraphic" in2="effect1_backgroundBlur_70_262" result="shape"/>
</filter>
<radialGradient id="paint0_radial_70_262" cx="0" cy="0" r="1" gradientUnits="userSpaceOnUse" gradientTransform="translate(108.815 80.0327) rotate(69.7607) scale(198.991 214.462)">
<stop stop-color="#4CC413"/>
<stop offset="0.933399" stop-color="#FFBBE0" stop-opacity="0.4"/>
</radialGradient>
</defs>
</svg>
