<svg width="208" height="195" viewBox="0 0 208 195" fill="none" xmlns="http://www.w3.org/2000/svg">
<g filter="url(#filter0_b_70_270)">
<path d="M157.725 35.7811L115.038 4.69243C107.06 -1.11772 96.0368 -0.239899 89.0791 6.75959L6.68448 89.6495C-0.568851 96.9464 -1.10267 108.556 5.45042 116.488L21.6457 136.09C23.342 138.143 24.6111 140.515 25.3786 143.065L30.7824 161.02C32.7362 167.512 37.8457 172.572 44.3562 174.463L107.356 192.759C113.381 194.508 119.878 193.33 124.904 189.575L198.55 134.556C205.322 129.497 208.182 120.728 205.695 112.649L194.957 77.768C194.056 74.8413 192.495 72.1605 190.394 69.9323L160.502 38.2279C159.654 37.3282 158.724 36.5091 157.725 35.7811Z" fill="url(#paint0_linear_70_270)"/>
<path d="M157.725 35.7811L115.038 4.69243C107.06 -1.11772 96.0368 -0.239899 89.0791 6.75959L6.68448 89.6495C-0.568851 96.9464 -1.10267 108.556 5.45042 116.488L21.6457 136.09C23.342 138.143 24.6111 140.515 25.3786 143.065L30.7824 161.02C32.7362 167.512 37.8457 172.572 44.3562 174.463L107.356 192.759C113.381 194.508 119.878 193.33 124.904 189.575L198.55 134.556C205.322 129.497 208.182 120.728 205.695 112.649L194.957 77.768C194.056 74.8413 192.495 72.1605 190.394 69.9323L160.502 38.2279C159.654 37.3282 158.724 36.5091 157.725 35.7811Z" stroke="#13C41A"/>
</g>
<defs>
<filter id="filter0_b_70_270" x="-89.6313" y="-89.641" width="386.713" height="373.693" filterUnits="userSpaceOnUse" color-interpolation-filters="sRGB">
<feFlood flood-opacity="0" result="BackgroundImageFix"/>
<feGaussianBlur in="BackgroundImageFix" stdDeviation="45"/>
<feComposite in2="SourceAlpha" operator="in" result="effect1_backgroundBlur_70_270"/>
<feBlend mode="normal" in="SourceGraphic" in2="effect1_backgroundBlur_70_270" result="shape"/>
</filter>
<linearGradient id="paint0_linear_70_270" x1="111.12" y1="61.6309" x2="-19.5911" y2="160.638" gradientUnits="userSpaceOnUse">
<stop stop-color="#4CC413"/>
<stop offset="0.933399" stop-color="#FFBBE0" stop-opacity="0.1"/>
</linearGradient>
</defs>
</svg>
