<svg width="208" height="195" viewBox="0 0 208 195" fill="none" xmlns="http://www.w3.org/2000/svg">
<g filter="url(#filter0_b_70_504)">
<path d="M18.9461 136.279L47.1892 183.993C52.1659 192.401 62.4888 195.983 71.6034 192.464L194.627 144.968C204.209 141.269 209.431 130.911 206.707 121.007L199.591 95.1331C198.849 92.4325 198.681 89.6061 199.1 86.8369L202.006 67.6394C203.074 60.5764 200.295 53.4795 194.714 49.0209L140.427 5.65257C135.636 1.82461 129.353 0.406749 123.381 1.80592L22.3395 25.4821C14.3296 27.359 8.28616 33.9492 7.10833 42.0913L1.49278 80.91C1.03089 84.1029 1.34825 87.3601 2.41778 90.4038L17.2881 132.722C17.7228 133.959 18.2781 135.15 18.9461 136.279Z" fill="url(#paint0_radial_70_504)"/>
<path d="M18.9461 136.279L47.1892 183.993C52.1659 192.401 62.4888 195.983 71.6034 192.464L194.627 144.968C204.209 141.269 209.431 130.911 206.707 121.007L199.591 95.1331C198.849 92.4325 198.681 89.6061 199.1 86.8369L202.006 67.6394C203.074 60.5764 200.295 53.4795 194.714 49.0209L140.427 5.65257C135.636 1.82461 129.353 0.406749 123.381 1.80592L22.3395 25.4821C14.3296 27.359 8.28616 33.9492 7.10833 42.0913L1.49278 80.91C1.03089 84.1029 1.34825 87.3601 2.41778 90.4038L17.2881 132.722C17.7228 133.959 18.2781 135.15 18.9461 136.279Z" stroke="#13C41A"/>
</g>
<defs>
<filter id="filter0_b_70_504" x="-89.2133" y="-89.2217" width="387.14" height="373.53" filterUnits="userSpaceOnUse" color-interpolation-filters="sRGB">
<feFlood flood-opacity="0" result="BackgroundImageFix"/>
<feGaussianBlur in="BackgroundImageFix" stdDeviation="45"/>
<feComposite in2="SourceAlpha" operator="in" result="effect1_backgroundBlur_70_504"/>
<feBlend mode="normal" in="SourceGraphic" in2="effect1_backgroundBlur_70_504" result="shape"/>
</filter>
<radialGradient id="paint0_radial_70_504" cx="0" cy="0" r="1" gradientUnits="userSpaceOnUse" gradientTransform="translate(7.73345 237.142) rotate(-31.4153) scale(285.776 291.649)">
<stop stop-color="#FFBBE0" stop-opacity="0.7"/>
<stop offset="1" stop-color="#4CC413"/>
</radialGradient>
</defs>
</svg>
