<svg width="643" height="714" viewBox="0 0 643 714" fill="none" xmlns="http://www.w3.org/2000/svg">
<g filter="url(#filter0_b_81_1066)">
<path d="M138.724 101.862L97.5746 151.255C91.2576 158.838 91.416 169.895 97.9478 177.293L191.396 283.14C198.205 290.853 209.755 292.142 218.097 286.119L244.879 266.78C247.039 265.221 249.487 264.109 252.082 263.509L275.593 258.074C282.198 256.546 287.58 251.777 289.89 245.404L316.956 170.739C319.094 164.841 318.341 158.281 314.921 153.021L254.707 60.4076C250.1 53.3211 241.535 49.8961 233.312 51.852L189.215 62.3402C186.236 63.0488 183.459 64.432 181.099 66.3833L141.346 99.2497C140.393 100.038 139.515 100.912 138.724 101.862Z" fill="url(#paint0_radial_81_1066)"/>
<path d="M138.724 101.862L97.5746 151.255C91.2576 158.838 91.416 169.895 97.9478 177.293L191.396 283.14C198.205 290.853 209.755 292.142 218.097 286.119L244.879 266.78C247.039 265.221 249.487 264.109 252.082 263.509L275.593 258.074C282.198 256.546 287.58 251.777 289.89 245.404L316.956 170.739C319.094 164.841 318.341 158.281 314.921 153.021L254.707 60.4076C250.1 53.3211 241.535 49.8961 233.312 51.852L189.215 62.3402C186.236 63.0488 183.459 64.432 181.099 66.3833L141.346 99.2497C140.393 100.038 139.515 100.912 138.724 101.862Z" stroke="#13C41A"/>
</g>
<g filter="url(#filter1_b_81_1066)">
<path d="M494.777 632.148L542.729 587.871C549.747 581.392 551.203 570.855 546.207 562.714L453.112 411.053C447.761 402.336 436.694 399.061 427.461 403.462L398.078 417.469C395.279 418.803 392.209 419.468 389.109 419.412L366.155 418.996C358.211 418.851 350.935 423.423 347.618 430.644L312.701 506.652C310.273 511.938 310.267 518.019 312.683 523.31L370.737 650.412C373.957 657.46 380.958 662.015 388.706 662.101L437.35 662.645C440.936 662.685 444.467 661.76 447.574 659.967L491.209 634.774C492.492 634.033 493.688 633.153 494.777 632.148Z" fill="url(#paint1_radial_81_1066)"/>
<path d="M494.777 632.148L542.729 587.871C549.747 581.392 551.203 570.855 546.207 562.714L453.112 411.053C447.761 402.336 436.694 399.061 427.461 403.462L398.078 417.469C395.279 418.803 392.209 419.468 389.109 419.412L366.155 418.996C358.211 418.851 350.935 423.423 347.618 430.644L312.701 506.652C310.273 511.938 310.267 518.019 312.683 523.31L370.737 650.412C373.957 657.46 380.958 662.015 388.706 662.101L437.35 662.645C440.936 662.685 444.467 661.76 447.574 659.967L491.209 634.774C492.492 634.033 493.688 633.153 494.777 632.148Z" stroke="#13C41A"/>
</g>
<g filter="url(#filter2_b_81_1066)">
<path d="M173.825 638.701L234.302 662.289C243.787 665.988 254.538 661.972 259.274 652.96L310.651 555.196C315.454 546.056 312.511 534.763 303.858 529.13L274.888 510.274C273.019 509.057 271.367 507.537 270 505.775L253.968 485.12C250.505 480.659 245.317 477.869 239.686 477.441L161.937 471.526C155.266 471.019 148.783 473.88 144.663 479.151L91.9053 546.634C86.238 553.884 86.2482 564.064 91.9301 571.302L118.809 605.542C120.385 607.549 122.33 609.236 124.541 610.512L171.092 637.389C171.969 637.895 172.882 638.334 173.825 638.701Z" fill="url(#paint2_linear_81_1066)"/>
<path d="M173.825 638.701L234.302 662.289C243.787 665.988 254.538 661.972 259.274 652.96L310.651 555.196C315.454 546.056 312.511 534.763 303.858 529.13L274.888 510.274C273.019 509.057 271.367 507.537 270 505.775L253.968 485.12C250.505 480.659 245.317 477.869 239.686 477.441L161.937 471.526C155.266 471.019 148.783 473.88 144.663 479.151L91.9053 546.634C86.238 553.884 86.2482 564.064 91.9301 571.302L118.809 605.542C120.385 607.549 122.33 609.236 124.541 610.512L171.092 637.389C171.969 637.895 172.882 638.334 173.825 638.701Z" stroke="#13C41A"/>
</g>
<g filter="url(#filter3_b_81_1066)">
<path d="M359.946 341.279L388.189 388.993C393.166 397.401 403.489 400.983 412.603 397.464L535.627 349.968C545.209 346.269 550.431 335.911 547.707 326.007L540.591 300.133C539.849 297.433 539.681 294.606 540.1 291.837L543.006 272.639C544.074 265.576 541.295 258.48 535.714 254.021L481.427 210.653C476.636 206.825 470.353 205.407 464.381 206.806L363.339 230.482C355.33 232.359 349.286 238.949 348.108 247.091L342.493 285.91C342.031 289.103 342.348 292.36 343.418 295.404L358.288 337.722C358.723 338.959 359.278 340.15 359.946 341.279Z" fill="url(#paint3_radial_81_1066)"/>
<path d="M359.946 341.279L388.189 388.993C393.166 397.401 403.489 400.983 412.603 397.464L535.627 349.968C545.209 346.269 550.431 335.911 547.707 326.007L540.591 300.133C539.849 297.433 539.681 294.606 540.1 291.837L543.006 272.639C544.074 265.576 541.295 258.48 535.714 254.021L481.427 210.653C476.636 206.825 470.353 205.407 464.381 206.806L363.339 230.482C355.33 232.359 349.286 238.949 348.108 247.091L342.493 285.91C342.031 289.103 342.348 292.36 343.418 295.404L358.288 337.722C358.723 338.959 359.278 340.15 359.946 341.279Z" stroke="#13C41A"/>
</g>
<g filter="url(#filter4_b_81_1066)">
<path d="M328.441 429.708L294.235 477.59C288.498 485.621 277.761 488.266 268.95 483.82L153.19 425.399C144.005 420.763 139.835 409.915 143.551 400.321L154.178 372.879C155.14 370.395 155.596 367.745 155.52 365.082L154.901 343.511C154.706 336.734 157.958 330.32 163.54 326.472L223.531 285.107C228.696 281.546 235.233 280.615 241.187 282.592L337.685 314.635C345.707 317.299 351.188 324.718 351.377 333.168L352.298 374.299C352.366 377.361 351.731 380.397 350.44 383.174L330.305 426.509C329.784 427.631 329.16 428.702 328.441 429.708Z" fill="url(#paint4_radial_81_1066)"/>
<path d="M328.441 429.708L294.235 477.59C288.498 485.621 277.761 488.266 268.95 483.82L153.19 425.399C144.005 420.763 139.835 409.915 143.551 400.321L154.178 372.879C155.14 370.395 155.596 367.745 155.52 365.082L154.901 343.511C154.706 336.734 157.958 330.32 163.54 326.472L223.531 285.107C228.696 281.546 235.233 280.615 241.187 282.592L337.685 314.635C345.707 317.299 351.188 324.718 351.377 333.168L352.298 374.299C352.366 377.361 351.731 380.397 350.44 383.174L330.305 426.509C329.784 427.631 329.16 428.702 328.441 429.708Z" stroke="#13C41A"/>
</g>
<g filter="url(#filter5_b_81_1066)">
<path d="M462.725 50.781L420.038 19.6923C412.06 13.8821 401.037 14.7599 394.079 21.7594L311.685 104.649C304.431 111.946 303.897 123.556 310.451 131.488L326.646 151.09C328.342 153.143 329.611 155.515 330.379 158.065L335.783 176.02C337.736 182.512 342.846 187.572 349.356 189.463L412.356 207.759C418.381 209.508 424.878 208.329 429.904 204.575L503.55 149.556C510.322 144.497 513.182 135.728 510.695 127.649L499.957 92.7679C499.056 89.8411 497.495 87.1603 495.395 84.9322L465.503 53.2278C464.654 52.3281 463.724 51.509 462.725 50.781Z" fill="url(#paint5_linear_81_1066)"/>
<path d="M462.725 50.781L420.038 19.6923C412.06 13.8821 401.037 14.7599 394.079 21.7594L311.685 104.649C304.431 111.946 303.897 123.556 310.451 131.488L326.646 151.09C328.342 153.143 329.611 155.515 330.379 158.065L335.783 176.02C337.736 182.512 342.846 187.572 349.356 189.463L412.356 207.759C418.381 209.508 424.878 208.329 429.904 204.575L503.55 149.556C510.322 144.497 513.182 135.728 510.695 127.649L499.957 92.7679C499.056 89.8411 497.495 87.1603 495.395 84.9322L465.503 53.2278C464.654 52.3281 463.724 51.509 462.725 50.781Z" stroke="#13C41A"/>
</g>
<defs>
<filter id="filter0_b_81_1066" x="2.4408" y="-39.1921" width="406.213" height="419.596" filterUnits="userSpaceOnUse" color-interpolation-filters="sRGB">
<feFlood flood-opacity="0" result="BackgroundImageFix"/>
<feGaussianBlur in="BackgroundImageFix" stdDeviation="45"/>
<feComposite in2="SourceAlpha" operator="in" result="effect1_backgroundBlur_81_1066"/>
<feBlend mode="normal" in="SourceGraphic" in2="effect1_backgroundBlur_81_1066" result="shape"/>
</filter>
<filter id="filter1_b_81_1066" x="220.375" y="311.013" width="419.287" height="442.133" filterUnits="userSpaceOnUse" color-interpolation-filters="sRGB">
<feFlood flood-opacity="0" result="BackgroundImageFix"/>
<feGaussianBlur in="BackgroundImageFix" stdDeviation="45"/>
<feComposite in2="SourceAlpha" operator="in" result="effect1_backgroundBlur_81_1066"/>
<feBlend mode="normal" in="SourceGraphic" in2="effect1_backgroundBlur_81_1066" result="shape"/>
</filter>
<filter id="filter2_b_81_1066" x="-2.83826" y="380.969" width="406.288" height="373.19" filterUnits="userSpaceOnUse" color-interpolation-filters="sRGB">
<feFlood flood-opacity="0" result="BackgroundImageFix"/>
<feGaussianBlur in="BackgroundImageFix" stdDeviation="45"/>
<feComposite in2="SourceAlpha" operator="in" result="effect1_backgroundBlur_81_1066"/>
<feBlend mode="normal" in="SourceGraphic" in2="effect1_backgroundBlur_81_1066" result="shape"/>
</filter>
<filter id="filter3_b_81_1066" x="251.787" y="115.778" width="387.14" height="373.53" filterUnits="userSpaceOnUse" color-interpolation-filters="sRGB">
<feFlood flood-opacity="0" result="BackgroundImageFix"/>
<feGaussianBlur in="BackgroundImageFix" stdDeviation="45"/>
<feComposite in2="SourceAlpha" operator="in" result="effect1_backgroundBlur_81_1066"/>
<feBlend mode="normal" in="SourceGraphic" in2="effect1_backgroundBlur_81_1066" result="shape"/>
</filter>
<filter id="filter4_b_81_1066" x="51.6973" y="191.073" width="391.105" height="385.394" filterUnits="userSpaceOnUse" color-interpolation-filters="sRGB">
<feFlood flood-opacity="0" result="BackgroundImageFix"/>
<feGaussianBlur in="BackgroundImageFix" stdDeviation="45"/>
<feComposite in2="SourceAlpha" operator="in" result="effect1_backgroundBlur_81_1066"/>
<feBlend mode="normal" in="SourceGraphic" in2="effect1_backgroundBlur_81_1066" result="shape"/>
</filter>
<filter id="filter5_b_81_1066" x="215.369" y="-74.6411" width="386.713" height="373.693" filterUnits="userSpaceOnUse" color-interpolation-filters="sRGB">
<feFlood flood-opacity="0" result="BackgroundImageFix"/>
<feGaussianBlur in="BackgroundImageFix" stdDeviation="45"/>
<feComposite in2="SourceAlpha" operator="in" result="effect1_backgroundBlur_81_1066"/>
<feBlend mode="normal" in="SourceGraphic" in2="effect1_backgroundBlur_81_1066" result="shape"/>
</filter>
<radialGradient id="paint0_radial_81_1066" cx="0" cy="0" r="1" gradientUnits="userSpaceOnUse" gradientTransform="translate(200.815 130.033) rotate(69.7607) scale(198.991 214.462)">
<stop stop-color="#4CC413"/>
<stop offset="0.933399" stop-color="#FFBBE0" stop-opacity="0.7"/>
</radialGradient>
<radialGradient id="paint1_radial_81_1066" cx="0" cy="0" r="1" gradientUnits="userSpaceOnUse" gradientTransform="translate(413.374 496.612) rotate(54.7576) scale(243.303 218.65)">
<stop stop-color="#4CC413"/>
<stop offset="0.932292" stop-color="#FFBBE0" stop-opacity="0.7"/>
</radialGradient>
<linearGradient id="paint2_linear_81_1066" x1="212.761" y1="603.653" x2="303.58" y2="474.142" gradientUnits="userSpaceOnUse">
<stop stop-color="#4CC413"/>
<stop offset="0.933399" stop-color="#FFBBE0" stop-opacity="0.7"/>
</linearGradient>
<radialGradient id="paint3_radial_81_1066" cx="0" cy="0" r="1" gradientUnits="userSpaceOnUse" gradientTransform="translate(348.733 442.142) rotate(-31.4153) scale(285.776 291.649)">
<stop stop-color="#FFBBE0" stop-opacity="0.7"/>
<stop offset="1" stop-color="#4CC413"/>
</radialGradient>
<radialGradient id="paint4_radial_81_1066" cx="0" cy="0" r="1" gradientUnits="userSpaceOnUse" gradientTransform="translate(322.791 384.612) rotate(-174.132) scale(220.708 237.867)">
<stop stop-color="#4CC413"/>
<stop offset="0.933399" stop-color="#FFBBE0" stop-opacity="0.7"/>
</radialGradient>
<linearGradient id="paint5_linear_81_1066" x1="416.12" y1="76.6307" x2="285.409" y2="175.638" gradientUnits="userSpaceOnUse">
<stop stop-color="#4CC413"/>
<stop offset="0.933399" stop-color="#FFBBE0" stop-opacity="0.7"/>
</linearGradient>
</defs>
</svg>
