<svg width="227" height="195" viewBox="0 0 227 195" fill="none" xmlns="http://www.w3.org/2000/svg">
<g filter="url(#filter0_b_70_502)">
<path d="M86.8249 168.701L147.302 192.289C156.787 195.988 167.538 191.972 172.274 182.96L223.651 85.1961C228.454 76.0565 225.511 64.7629 216.858 59.1303L187.888 40.2737C186.019 39.0572 184.367 37.5366 183 35.7749L166.968 15.1203C163.505 10.6588 158.317 7.86934 152.686 7.44094L74.9366 1.52641C68.266 1.01897 61.7835 3.88029 57.6631 9.15068L4.90533 76.6344C-0.762038 83.8837 -0.75181 94.0644 4.93012 101.302L31.8091 135.542C33.385 137.549 35.3305 139.236 37.5407 140.512L84.0922 167.389C84.9686 167.895 85.8821 168.334 86.8249 168.701Z" fill="url(#paint0_linear_70_502)"/>
<path d="M86.8249 168.701L147.302 192.289C156.787 195.988 167.538 191.972 172.274 182.96L223.651 85.1961C228.454 76.0565 225.511 64.7629 216.858 59.1303L187.888 40.2737C186.019 39.0572 184.367 37.5366 183 35.7749L166.968 15.1203C163.505 10.6588 158.317 7.86934 152.686 7.44094L74.9366 1.52641C68.266 1.01897 61.7835 3.88029 57.6631 9.15068L4.90533 76.6344C-0.762038 83.8837 -0.75181 94.0644 4.93012 101.302L31.8091 135.542C33.385 137.549 35.3305 139.236 37.5407 140.512L84.0922 167.389C84.9686 167.895 85.8821 168.334 86.8249 168.701Z" stroke="#13C41A"/>
</g>
<defs>
<filter id="filter0_b_70_502" x="-89.8383" y="-89.0312" width="406.288" height="373.19" filterUnits="userSpaceOnUse" color-interpolation-filters="sRGB">
<feFlood flood-opacity="0" result="BackgroundImageFix"/>
<feGaussianBlur in="BackgroundImageFix" stdDeviation="45"/>
<feComposite in2="SourceAlpha" operator="in" result="effect1_backgroundBlur_70_502"/>
<feBlend mode="normal" in="SourceGraphic" in2="effect1_backgroundBlur_70_502" result="shape"/>
</filter>
<linearGradient id="paint0_linear_70_502" x1="125.761" y1="133.653" x2="216.58" y2="4.14193" gradientUnits="userSpaceOnUse">
<stop stop-color="#4CC413"/>
<stop offset="0.933399" stop-color="#FFBBE0" stop-opacity="0.7"/>
</linearGradient>
</defs>
</svg>
