<svg width="33" height="37" viewBox="0 0 33 37" fill="none" xmlns="http://www.w3.org/2000/svg">
<path d="M18.252 16.124L28.832 8.39598L31.224 10.42L31.776 13.456L19.724 18.608L31.684 23.944L31.04 26.98L28.74 28.912L18.16 21.184L19.54 34.064L16.688 35.076L13.836 34.064L15.308 21L4.72798 28.728L2.42798 26.704L1.87598 23.668L13.928 18.516L1.96798 13.18L2.51998 10.144L4.81998 8.21197L15.4 16.032L14.02 3.05997L16.964 2.04797L19.816 3.05997L18.252 16.124Z" fill="url(#paint0_linear_10_728)"/>
<path fill-rule="evenodd" clip-rule="evenodd" d="M28.8775 7.12447L32.1438 9.88827L32.9026 14.062L22.2223 18.6276L32.8301 23.3603L31.9469 27.5243L28.7831 30.1818L19.3951 23.3245L20.6185 34.7424L16.6881 36.1371L12.7535 34.7409L14.0595 23.1504L4.66989 30.0089L1.50641 27.225L0.749512 23.062L11.4298 18.4964L0.843792 13.7734L1.60073 9.61027L4.78051 6.93925L14.165 13.8756L12.9414 2.37337L16.9693 0.98877L20.904 2.38496L19.5182 13.9608L28.8775 7.12447ZM18.2521 16.124L19.8161 3.06L16.9641 2.048L14.0201 3.06L15.4001 16.032L4.82008 8.212L2.52008 10.144L1.96808 13.18L13.9281 18.516L1.87608 23.668L2.42808 26.704L4.72808 28.728L15.3081 21L13.8361 34.064L16.6881 35.076L19.5401 34.064L18.1601 21.184L28.7401 28.912L31.0401 26.98L31.6841 23.944L19.7241 18.608L31.7761 13.456L31.2241 10.42L28.8321 8.396L18.2521 16.124Z" fill="black"/>
<defs>
<linearGradient id="paint0_linear_10_728" x1="17" y1="15" x2="17" y2="39.5" gradientUnits="userSpaceOnUse">
<stop stop-color="#13C41A"/>
<stop offset="0.96875" stop-color="white" stop-opacity="0"/>
</linearGradient>
</defs>
</svg>
