<svg width="1920" height="104" viewBox="0 0 1920 104" fill="none" xmlns="http://www.w3.org/2000/svg">
<path d="M170.281 34.2458L-52.7946 66.9062C-72.4384 69.7823 -87 86.6311 -87 106.484V129C-87 151.091 -69.0914 169 -47 169H1928C1950.09 169 1968 151.091 1968 129V81.0613C1968 62.8334 1955.68 46.9107 1938.03 42.3396L1798.4 6.16621C1788.01 3.47514 1776.97 5.07081 1767.77 10.5947L1676.94 65.1365C1669.6 69.5388 1661.05 71.4753 1652.54 70.6618L1452 51.5L1306.47 34.465C1303.83 34.1558 1301.16 34.1108 1298.51 34.3308L1187.75 43.5225C1183.94 43.8392 1180.1 43.6063 1176.35 42.8309L1034.5 13.5L883.328 1.42554C879.792 1.1431 876.234 1.33231 872.747 1.9882L620.666 49.4135C618.227 49.8723 615.751 50.1032 613.27 50.1032H401.5L178.975 33.9291C176.074 33.7183 173.159 33.8245 170.281 34.2458Z" fill="#D9D9D9" stroke="#13C41A"/>
</svg>
