<svg width="376" height="284" viewBox="0 0 376 284" fill="none" xmlns="http://www.w3.org/2000/svg">
<path d="M285.652 45.8253L285.56 46.6533L288.044 59.6253L295.312 66.8013L303.776 67.7213L312.424 63.1213L314.08 65.5133L306.812 71.3093L298.164 72.4133L289.148 70.2973L281.328 63.7653L276.636 49.9653L278.2 37.6373L282.984 28.9893L292.644 23.6533L300.74 22.6413L307.18 24.6653L312.148 29.1733L315 37.3613L315.092 44.9973L313.804 46.0093L301.568 46.8373L285.652 45.8253ZM290.252 30.9213L286.664 37.9133L286.112 42.0533L300.096 42.2373L306.444 40.8573L305.892 32.3013L303.132 27.6093L297.244 26.7813L290.252 30.9213Z" fill="url(#paint0_linear_7_617)"/>
<path d="M270.996 14.1773L270.444 46.3773L270.72 55.3013L271.456 65.9733L278.172 67.8133L277.712 71.0333L266.488 70.5733L255.264 71.0333L255.448 67.8133L261.52 65.9733L261.98 56.3133L262.348 36.1653L261.796 15.6493L261.336 6.4493L254.805 6.7253L254.344 3.5053L267.04 1.0213L271.641 2.0333L270.996 14.1773Z" fill="url(#paint1_linear_7_617)"/>
<path d="M254.322 71.4933L248.066 72.4133L241.534 70.2053L238.59 62.8453L239.05 45.7333L238.59 30.2773L232.242 29.3573L231.69 26.1373L238.958 24.2053L242.27 14.9133H246.962L246.686 25.2173L257.818 25.5853L257.266 29.6333L247.606 30.2773L247.238 34.5093L247.606 62.3853L249.446 67.9053L258.094 65.6053L259.474 68.3653L254.322 71.4933Z" fill="url(#paint2_linear_7_617)"/>
<path d="M231.024 71.4933L224.768 72.4133L218.236 70.2053L215.292 62.8453L215.752 45.7333L215.292 30.2773L208.944 29.3573L208.392 26.1373L215.66 24.2053L218.972 14.9133H223.664L223.388 25.2173L234.52 25.5853L233.968 29.6333L224.308 30.2773L223.94 34.5093L224.308 62.3853L226.148 67.9053L234.796 65.6053L236.176 68.3653L231.024 71.4933Z" fill="url(#paint3_linear_7_617)"/>
<path d="M164.032 53.0933V41.0413L169.46 30.0933L179.856 23.1933L192.46 22.7333L203.96 29.6333L209.94 40.6733L208.836 57.5093L202.028 68.3653L187.768 72.4133L175.808 70.1133L167.068 62.2013L164.032 53.0933ZM174.152 37.9133L173.692 48.2173L174.796 58.8893L178.752 65.7893L188.504 68.1813L197.52 64.2253L200.188 49.8733L199.268 37.9133L195.864 30.2773L189.148 26.8733L179.948 27.8853L174.152 37.9133Z" fill="url(#paint4_linear_7_617)"/>
<path d="M129.416 28.5293L130.06 29.1733L139.628 23.9293L149.656 23.6533L159.408 31.1053L163.272 46.4693L160.512 60.1773L153.888 68.5493L140.64 72.4133L123.252 70.1133L120.032 66.8933L120.768 36.5333L120.676 15.6493L120.216 6.4493L113.684 6.7253L113.224 3.5053L125.92 1.0213L130.52 2.0333L129.416 28.5293ZM129.232 56.4973L129.968 65.0533L141.928 67.7213L151.036 62.0173L153.704 51.8973L153.336 39.7533L146.804 30.2773L141.1 28.8973L129.416 33.5893L129.232 56.4973Z" fill="url(#paint5_linear_7_617)"/>
<path d="M68.4291 12.4293L70.1771 4.33329L74.6851 3.59729L87.5651 37.6373L99.4331 65.9733L107.161 67.8133L106.701 71.4933L95.4771 70.5733L81.4931 71.4933L81.6771 67.8133L89.2211 65.9733L82.7811 48.4933L71.6491 48.1253L61.0691 48.4933L55.0891 65.9733L62.0811 67.8133L61.6211 71.4933L50.3971 70.5733L41.9331 71.4933L42.1171 67.8133L49.2931 65.9733L60.1491 37.7293L68.4291 12.4293ZM71.0971 15.6493L62.7251 43.4333L71.6491 43.8013L80.9411 43.4333L75.0531 28.7133L71.2811 15.6493H71.0971Z" fill="url(#paint6_linear_7_617)"/>
<path fill-rule="evenodd" clip-rule="evenodd" d="M285.56 46.6533L285.652 45.8253L301.568 46.8373L313.804 46.0093L315.092 44.9973L315 37.3613L312.148 29.1733L307.18 24.6653L300.74 22.6413L292.644 23.6533L282.984 28.9893L278.2 37.6373L276.636 49.9653L281.328 63.7653L289.148 70.2973L298.164 72.4133L306.812 71.3093L314.08 65.5133L312.424 63.1213L303.776 67.7213L295.312 66.8013L288.044 59.6253L285.56 46.6533ZM286.623 46.8891L301.57 47.8394L314.179 46.9862L316.098 45.4787L315.998 37.1863L313.008 28.6039L307.689 23.7772L300.832 21.622L292.329 22.6849L282.248 28.2532L277.232 37.3211L275.615 50.0686L280.471 64.3529L288.689 71.2167L298.111 73.4281L307.216 72.2658L315.434 65.7125L312.74 61.8207L303.578 66.6939L295.766 65.8448L288.968 59.132L286.623 46.8891ZM286.664 37.9133L290.252 30.9213L297.244 26.7813L303.132 27.6093L305.892 32.3013L306.444 40.8573L300.096 42.2373L286.112 42.0533L286.664 37.9133ZM287.632 38.2164L287.252 41.0682L299.995 41.2359L305.391 40.0629L304.909 32.6032L302.515 28.5323L297.452 27.8204L291.01 31.6347L287.632 38.2164Z" fill="black"/>
<path fill-rule="evenodd" clip-rule="evenodd" d="M258.705 66.8265L261.52 65.9733L261.981 56.3133L262.348 36.1653L261.796 15.6493L261.337 6.44929L254.805 6.7253L254.344 3.50529L267.041 1.02129L271.641 2.03329L270.997 14.1773L270.445 46.3773L270.721 55.3013L271.456 65.9733L278.173 67.8133L277.713 71.0333L266.489 70.5733L255.265 71.0333L255.271 70.9172L254.322 71.4933L254.236 71.506L254.203 72.0776L266.489 71.5741L278.575 72.0695L279.287 67.0818L272.405 65.1964L271.719 55.2514L271.445 46.3705L271.996 14.2125L272.684 1.23895L267.052 0L253.22 2.7063L253.943 7.76261L260.387 7.49029L260.797 15.6762L260.798 15.6992L261.348 36.1699L260.982 56.2657L260.981 56.295L260.555 65.2209L258.251 65.9191L258.705 66.8265Z" fill="black"/>
<path fill-rule="evenodd" clip-rule="evenodd" d="M231.305 29.8108L231.38 30.2427L237.616 31.1465L238.05 45.7346L237.585 63.0249L240.777 71.005L247.974 73.4377L254.668 72.4532L257.133 70.9568L255.265 71.0333L255.271 70.9172L254.322 71.4933L248.066 72.4133L241.534 70.2053L238.59 62.8453L239.05 45.7333L238.59 30.2773L233.971 29.6079L233.968 29.6333L231.305 29.8108ZM258.705 66.8266L258.094 65.6053L249.446 67.9053L247.606 62.3853L247.238 34.5093L247.606 30.2773L257.266 29.6333L257.818 25.5853L246.686 25.2173L246.686 25.2161L246.962 14.9133H242.27L238.958 24.2053L233.85 25.5632L230.559 25.4544L230.55 25.4056L238.193 23.374L241.565 13.9133H247.989L247.713 24.2507L258.959 24.6225L258.147 30.5768L248.528 31.2181L248.239 34.5461L248.604 62.2166L250.098 66.6973L258.624 64.4296L259.676 66.5323L258.705 66.8266Z" fill="black"/>
<path fill-rule="evenodd" clip-rule="evenodd" d="M224.768 72.4133L231.024 71.4933L236.176 68.3653L234.796 65.6053L226.148 67.9053L224.308 62.3853L223.94 34.5093L224.308 30.2773L233.968 29.6333L233.971 29.6079L234.961 29.7514L234.849 30.5768L225.23 31.2181L224.941 34.5461L225.306 62.2166L226.799 66.6973L235.326 64.4296L237.482 68.7421L231.37 72.4532L224.676 73.4377L217.479 71.005L214.287 63.0249L214.752 45.7346L214.317 31.1465L208.081 30.2427L207.252 25.4056L214.895 23.374L218.267 13.9133H224.691L224.414 24.2507L235.661 24.6225L235.596 25.0992L233.85 25.5632L223.388 25.2173L223.388 25.2161L223.664 14.9133H218.972L215.66 24.2053L208.392 26.1373L208.944 29.3573L215.292 30.2773L215.752 45.7333L215.292 62.8453L218.236 70.2053L224.768 72.4133Z" fill="black"/>
<path fill-rule="evenodd" clip-rule="evenodd" d="M163.032 47.6591V53.2556L166.203 62.7665L175.345 71.0425L187.813 73.4402L202.671 69.2223L209.818 57.8267L210.957 40.4508L204.709 28.9165L192.72 21.7231L179.538 22.2042L168.684 29.4086L163.032 40.807V45.5168L163.272 46.4693L163.032 47.6591ZM164.032 41.0413V53.0933L167.068 62.2013L175.808 70.1133L187.768 72.4133L202.028 68.3653L208.836 57.5093L209.94 40.6733L203.96 29.6333L192.46 22.7333L179.856 23.1933L169.46 30.0933L164.032 41.0413ZM173.692 48.2173L174.152 37.9133L179.948 27.8853L189.148 26.8733L195.864 30.2773L199.268 37.9133L200.188 49.8733L197.52 64.2253L188.504 68.1813L178.752 65.7893L174.796 58.8893L173.692 48.2173ZM174.695 48.188L175.769 58.5757L179.407 64.9202L188.413 67.1293L196.634 63.5222L199.181 49.8194L198.284 38.1625L195.095 31.0087L188.962 27.8999L180.561 28.824L175.14 38.2021L174.695 48.188Z" fill="black"/>
<path fill-rule="evenodd" clip-rule="evenodd" d="M139.359 22.9363L149.982 22.6439L160.292 30.5227L164.032 45.3929V47.7588L161.445 60.6097L154.474 69.42L140.717 73.4323L122.784 71.0602L119.022 67.2974L119.768 36.5233L119.676 15.6765L119.266 7.49029L112.822 7.76261L112.099 2.7063L125.932 0L131.554 1.23687L130.446 27.8212L139.359 22.9363ZM129.416 28.5293L130.52 2.03329L125.92 1.02129L113.224 3.50529L113.684 6.7253L120.216 6.44929L120.676 15.6493L120.768 36.5333L120.032 66.8933L123.252 70.1133L140.64 72.4133L153.888 68.5493L160.512 60.1773L163.272 46.4693L159.408 31.1053L149.656 23.6533L139.628 23.9293L130.06 29.1733L129.416 28.5293ZM130.901 64.237L130.232 56.4584L130.41 34.2675L141.175 29.9445L146.197 31.1594L152.345 40.0782L152.7 51.7826L150.17 61.3798L141.745 66.6559L130.901 64.237ZM141.928 67.7213L129.968 65.0533L129.232 56.4973L129.416 33.5893L141.1 28.8973L146.804 30.2773L153.336 39.7533L153.704 51.8973L151.036 62.0173L141.928 67.7213Z" fill="black"/>
<path fill-rule="evenodd" clip-rule="evenodd" d="M70.177 4.33327L68.429 12.4293L60.149 37.7293L49.293 65.9733L42.117 67.8133L41.933 71.4933L50.397 70.5733L61.6209 71.4933L62.081 67.8133L55.089 65.9733L61.069 48.4933L71.649 48.1253L82.781 48.4933L89.221 65.9733L81.677 67.8133L81.493 71.4933L95.477 70.5733L106.701 71.4933L107.161 67.8133L99.433 65.9733L87.565 37.6373L74.685 3.59727L70.177 4.33327ZM88.4942 37.2672L75.3309 2.47858L69.3434 3.45614L67.4625 12.1675L59.2065 37.3941L48.5447 65.1328L41.1551 67.0276L40.8757 72.6141L50.4103 71.5777L62.4944 72.5682L63.1818 67.0689L56.3832 65.2798L61.7922 49.4687L71.6499 49.1258L82.0753 49.4705L87.8952 65.2673L80.7155 67.0185L80.4382 72.5648L95.4689 71.576L107.574 72.5682L108.264 67.048L100.159 65.1182L88.4942 37.2672ZM71.097 15.6493H71.281L75.053 28.7133L80.941 43.4333L71.649 43.8013L62.725 43.4333L71.097 15.6493ZM71.1705 18.8714L64.0545 42.4872L71.6498 42.8005L79.4867 42.4901L74.1061 29.0385L71.1705 18.8714Z" fill="black"/>
<path d="M187.216 60.5423L185.284 70.3863L182.248 70.8463L181.052 62.7503L180.316 61.6463L176.82 61.1863L171.116 64.9583L169.92 73.6983V83.8183L183.076 83.3583L182.156 87.9583L169.92 87.4983L170.012 111.602L170.472 122.458L180.04 124.298L179.58 127.518L165.596 127.058L154.372 127.518L154.556 124.298L160.72 122.458L161.64 113.074L161.272 87.4983L155.292 87.9583V83.3583L161.364 83.7263L161.916 70.0183L166.608 61.2783L174.888 57.5983L184.364 58.7023L187.216 60.5423Z" fill="url(#paint7_linear_7_617)"/>
<path d="M109 109.578V97.5263L114.428 86.5783L124.824 79.6783L137.428 79.2183L148.928 86.1183L154.908 97.1583L153.804 113.994L146.996 124.85L132.736 128.898L120.776 126.598L112.036 118.686L109 109.578ZM119.12 94.3983L118.66 104.702L119.764 115.374L123.72 122.274L133.472 124.666L142.488 120.71L145.156 106.358L144.236 94.3983L140.832 86.7623L134.116 83.3583L124.916 84.3703L119.12 94.3983Z" fill="url(#paint8_linear_7_617)"/>
<path fill-rule="evenodd" clip-rule="evenodd" d="M185.284 70.3863L187.216 60.5423L184.364 58.7023L174.888 57.5983L166.608 61.2783L161.916 70.0183L161.364 83.7259L155.292 83.3583V87.9583L161.272 87.4983L161.64 113.074L160.72 122.458L154.556 124.298L154.372 127.518L165.596 127.058L179.58 127.518L180.04 124.298L170.472 122.458L170.012 111.602L169.92 87.4983L182.156 87.9583L183.076 83.3583L169.92 83.8183V73.6983L171.116 64.9583L176.82 61.1863L180.316 61.6463L181.052 62.7503L182.248 70.8463L185.284 70.3863ZM180.095 63.1183L181.405 71.9853L186.129 71.2695L188.327 60.0695L184.71 57.7359L174.732 56.5733L165.889 60.5035L160.926 69.748L160.405 82.6664L154.292 82.2958V89.0381L160.287 88.577L160.639 113.032L159.79 121.692L153.597 123.541L153.31 128.563L165.6 128.059L180.443 128.547L181.164 123.496L171.437 121.626L171.012 111.579L170.924 88.5367L182.969 88.9895L184.304 82.3147L170.92 82.7827V73.7664L172.045 65.5426L177.06 62.2264L179.735 62.5785L180.095 63.1183Z" fill="black"/>
<path fill-rule="evenodd" clip-rule="evenodd" d="M109 97.5263V109.578L112.036 118.686L120.776 126.598L132.736 128.898L146.996 124.85L153.804 113.994L154.908 97.1583L148.928 86.1183L137.428 79.2183L124.824 79.6783L114.428 86.5783L109 97.5263ZM118.66 104.702L119.12 94.3983L124.916 84.3703L134.116 83.3583L140.832 86.7623L144.236 94.3983L145.156 106.358L142.488 120.71L133.472 124.666L123.72 122.274L119.764 115.374L118.66 104.702ZM119.662 104.673L120.737 115.061L124.374 121.405L133.381 123.614L141.602 120.007L144.149 106.304L143.252 94.6475L140.063 87.4937L133.929 84.3848L125.529 85.3089L120.108 94.6871L119.662 104.673ZM108 109.741V97.292L113.651 85.8936L124.506 78.6892L137.688 78.2081L149.677 85.4015L155.925 96.9358L154.785 114.312L147.639 125.707L132.781 129.925L120.312 127.527L111.17 119.251L108 109.741Z" fill="black"/>
<path d="M348.367 180.222L356.004 181.418L364.56 180.222L366.583 173.966L364.099 169.182L346.987 158.786L343.307 152.99L343.124 143.238L349.655 137.718L359.315 135.97L372.84 138.73L370.908 152.254L367.043 150.966L365.296 141.398L358.948 140.202L352.047 141.766L350.299 146.826L352.508 152.254L370.172 162.374L374.496 167.802L374.863 176.45L368.608 183.81L357.568 185.65L349.931 185.282L341.375 181.97L343.676 168.722L347.632 170.01L348.367 180.222Z" fill="url(#paint9_linear_7_617)"/>
<path d="M315.096 180.222L322.733 181.418L331.289 180.222L333.312 173.966L330.828 169.182L313.716 158.786L310.036 152.99L309.853 143.238L316.384 137.718L326.044 135.97L339.569 138.73L337.637 152.254L333.772 150.966L332.025 141.398L325.677 140.202L318.776 141.766L317.029 146.826L319.237 152.254L336.901 162.374L341.225 167.802L341.592 176.45L335.337 183.81L324.297 185.65L316.66 185.282L308.104 181.97L310.405 168.722L314.361 170.01L315.096 180.222Z" fill="url(#paint10_linear_7_617)"/>
<path d="M278.93 159.062L278.838 159.89L281.322 172.862L288.59 180.038L297.054 180.958L305.702 176.358L307.358 178.75L300.09 184.546L291.442 185.65L282.426 183.534L274.606 177.002L269.914 163.202L271.478 150.874L276.262 142.226L285.922 136.89L294.018 135.878L300.458 137.902L305.426 142.41L308.278 150.598L308.37 158.234L307.082 159.246L294.846 160.074L278.93 159.062ZM283.53 144.158L279.942 151.15L279.39 155.29L293.374 155.474L299.722 154.094L299.17 145.538L296.41 140.846L290.522 140.018L283.53 144.158Z" fill="url(#paint11_linear_7_617)"/>
<path d="M265.448 179.302L271.98 181.05L271.52 184.27L260.664 183.81L249.44 184.27L249.624 181.05L255.696 179.21L256.34 169.55L255.972 149.494L253.488 143.422L245.668 142.042L235.64 147.194L235.456 150.414L234.904 159.614L235.088 168.538L235.548 179.21L242.264 181.05L241.804 184.27L230.948 183.81L219.724 184.27L219.908 181.05L225.98 179.21L226.624 169.55L225.796 142.318L219.264 142.594L218.804 139.374L231.5 136.89L236.1 137.902L235.824 142.594L245.668 136.614L255.052 135.97L263.516 141.766L264.896 149.126L264.712 168.538L265.448 179.302Z" fill="url(#paint12_linear_7_617)"/>
<path d="M204.817 118.674L209.049 116.65L213.465 118.122L215.489 123.09L212.913 127.138L208.589 128.886L204.541 126.402L202.609 122.262L204.817 118.674ZM215.213 150.414L214.661 159.614L214.937 168.538L215.305 179.21L222.021 181.05L221.561 184.27L210.705 183.81L199.481 184.27L199.665 181.05L205.737 179.21L206.197 169.55L206.013 151.886L205.553 142.318L199.021 142.594L198.561 139.374L211.257 136.89L215.857 137.902L215.213 150.414Z" fill="url(#paint13_linear_7_617)"/>
<path d="M166.368 141.95H167.012L176.856 135.97L187.068 137.074L193.784 141.858L199.12 152.806L199.212 168.446L195.716 175.714L185.136 184.27L174.924 185.65L166.184 183.35L166.46 191.538L167.196 202.21L173.912 204.05L173.452 207.27L162.228 206.81L151.004 207.27L151.188 204.05L157.26 202.21L157.72 192.55L158.088 172.402L157.536 151.886L157.076 142.042L150.544 142.318L150.084 139.098L162.78 136.614L166.276 137.626L166.368 141.95ZM166.276 178.29L176.212 181.51L182.008 179.854L189.092 172.31L190.38 161.73L187.62 146.274L179.432 141.398L166.552 145.814L166.736 150.414L166.276 178.29Z" fill="url(#paint14_linear_7_617)"/>
<path d="M118.812 141.95H119.456L129.3 135.97L139.512 137.074L146.228 141.858L151.564 152.806L151.656 168.446L148.16 175.714L137.58 184.27L127.368 185.65L118.628 183.35L118.904 191.538L119.64 202.21L126.356 204.05L125.896 207.27L114.672 206.81L103.448 207.27L103.632 204.05L109.704 202.21L110.164 192.55L110.532 172.402L109.98 151.886L109.52 142.042L102.988 142.318L102.528 139.098L115.224 136.614L118.72 137.626L118.812 141.95ZM118.72 178.29L128.656 181.51L134.452 179.854L141.536 172.31L142.824 161.73L140.064 146.274L131.876 141.398L118.996 145.814L119.18 150.414L118.72 178.29Z" fill="url(#paint15_linear_7_617)"/>
<path d="M76.4837 178.658L83.3837 180.406L92.6757 175.07L92.3077 162.65H84.3037L77.2197 165.502L73.9997 171.206L76.4837 178.658ZM100.22 167.066L100.864 180.038L107.212 180.958L106.568 183.994L93.7797 185.098L92.5837 179.67H92.1237L83.0157 185.098H73.4477L67.0077 180.406L65.0757 171.39L69.1237 164.214L80.1637 159.43L92.3077 158.97L91.9397 147.47L90.1917 141.766L82.7397 139.65L73.8157 141.766L73.5397 151.518L69.9517 152.254L67.5597 139.65L78.1397 136.522L90.0077 135.97L97.1837 139.466L100.128 147.378L100.22 167.066Z" fill="url(#paint16_linear_7_617)"/>
<path d="M58.7773 179.21L65.8613 181.05L65.4013 184.27L54.1773 183.81L41.5733 184.27L41.7573 181.05L49.1173 179.21L50.0373 152.53L34.2133 152.07L17.3773 152.53L18.0213 179.302L25.3813 181.05L24.4613 184.454L13.6973 183.81L1.1853 184.454L1.7373 181.05L9.0053 179.302L9.5573 150.138L8.6373 124.01L1.5533 122.17L2.0133 118.49L13.2373 119.41L25.8413 118.49L25.6573 122.17L18.2973 124.01L17.3773 147.47L34.2133 147.746L50.0373 147.47L49.1173 124.01L42.0333 122.17L42.4933 118.49L53.7173 119.41L66.3213 118.49L66.1373 122.17L58.7773 124.01L57.8573 150.138L58.7773 179.21Z" fill="url(#paint17_linear_7_617)"/>
<path fill-rule="evenodd" clip-rule="evenodd" d="M341.249 176.854L340.25 182.606L349.722 186.273L357.626 186.654L369.133 184.736L375.879 176.799L375.481 167.434L370.835 161.601L353.304 151.558L351.367 146.797L352.811 142.618L358.966 141.223L364.435 142.253L366.166 151.727L371.728 153.581L373.963 137.938L359.327 134.951L349.214 136.781L342.115 142.781L342.313 153.289L346.269 159.519L363.341 169.891L365.503 174.056L363.801 179.318L356.012 180.407L349.308 179.357L348.581 169.267L342.888 167.414L341.539 175.184L341.593 176.45L341.249 176.854ZM348.367 180.222L347.632 170.01L343.676 168.722L341.375 181.97L349.931 185.282L357.568 185.65L368.608 183.81L374.863 176.45L374.496 167.802L370.172 162.374L352.508 152.254L350.299 146.826L352.047 141.766L358.948 140.202L365.296 141.398L367.043 150.966L370.908 152.254L372.84 138.73L359.315 135.97L349.655 137.718L343.124 143.238L343.307 152.99L346.987 158.786L364.099 169.182L366.583 173.966L364.56 180.222L356.004 181.418L348.367 180.222Z" fill="black"/>
<path fill-rule="evenodd" clip-rule="evenodd" d="M322.733 181.418L315.096 180.222L314.361 170.01L310.405 168.722L308.104 181.97L316.66 185.282L324.297 185.65L335.337 183.81L341.592 176.45L341.225 167.802L336.901 162.374L319.237 152.254L317.029 146.826L318.776 141.766L325.677 140.202L332.025 141.398L333.772 150.966L337.637 152.254L339.569 138.73L326.044 135.97L316.384 137.718L309.853 143.238L310.036 152.99L313.716 158.786L330.828 169.182L333.312 173.966L331.289 180.222L322.733 181.418ZM322.741 180.407L316.037 179.357L315.31 169.267L309.617 167.414L306.979 182.606L316.451 186.273L324.355 186.654L335.862 184.736L342.187 177.294L342.542 175.249L342.21 167.434L337.564 161.601L320.033 151.558L318.096 146.797L319.54 142.618L325.695 141.223L331.164 142.253L332.895 151.727L338.457 153.581L340.692 137.938L326.056 134.951L315.943 136.781L308.844 142.781L309.042 153.289L312.998 159.519L330.07 169.891L332.232 174.056L330.53 179.318L322.741 180.407Z" fill="black"/>
<path fill-rule="evenodd" clip-rule="evenodd" d="M278.838 159.89L278.93 159.062L294.846 160.074L307.082 159.246L308.37 158.234L308.278 150.598L305.426 142.41L300.458 137.902L294.018 135.878L285.922 136.89L276.262 142.226L271.478 150.874L269.914 163.202L274.606 177.002L282.426 183.534L291.442 185.65L300.09 184.546L307.358 178.75L305.702 176.358L297.054 180.958L288.59 180.038L281.322 172.862L278.838 159.89ZM279.901 160.126L294.848 161.076L307.457 160.223L309.376 158.715L309.276 150.423L306.286 141.84L300.967 137.014L294.11 134.858L285.607 135.921L275.526 141.49L270.51 150.558L268.893 163.305L273.749 177.589L281.966 184.453L291.389 186.665L300.494 185.502L308.616 179.026L308.646 178.853L306.018 175.057L296.856 179.93L289.044 179.081L282.245 172.368L279.901 160.126ZM279.942 151.15L283.53 144.158L290.522 140.018L296.41 140.846L299.17 145.538L299.722 154.094L293.374 155.474L279.39 155.29L279.942 151.15ZM280.91 151.453L280.53 154.305L293.273 154.472L298.668 153.299L298.187 145.84L295.792 141.769L290.73 141.057L284.288 144.871L280.91 151.453Z" fill="black"/>
<path fill-rule="evenodd" clip-rule="evenodd" d="M218.729 184.15L218.663 185.314L230.948 184.811L242.666 185.307L243.379 180.318L236.516 178.438L236.088 168.506L235.905 159.634L236.454 150.474L236.455 150.471L236.606 147.822L245.826 143.085L252.771 144.311L254.976 149.699L255.34 169.526L254.744 178.453L248.666 180.295L248.379 185.314L260.664 184.811L272.382 185.307L273.096 180.313L266.397 178.52L265.713 168.508L265.897 149.038L264.423 141.175L255.33 134.948L245.357 135.633L236.934 140.749L237.149 137.108L231.512 135.868L217.68 138.575L218.402 143.631L224.827 143.36L225.623 169.532L225.028 178.453L219.1 180.25L220.911 180.746L225.98 179.21L226.624 169.55L225.796 142.318L219.264 142.594L218.804 139.374L231.5 136.89L236.1 137.902L235.824 142.594L245.668 136.614L255.052 135.97L263.516 141.766L264.896 149.126L264.712 168.538L265.448 179.302L271.98 181.05L271.52 184.27L260.664 183.81L249.44 184.27L249.624 181.05L255.696 179.21L256.34 169.55L255.972 149.494L253.488 143.422L245.668 142.042L235.64 147.194L235.456 150.414L234.904 159.614L235.088 168.538L235.548 179.21L242.264 181.05L241.804 184.27L230.948 183.81L221.571 184.194L221.561 184.27L220.658 184.232L219.724 184.27L219.729 184.192L219.721 184.192L218.729 184.15Z" fill="black"/>
<path fill-rule="evenodd" clip-rule="evenodd" d="M209.049 116.65L204.817 118.674L202.609 122.262L204.541 126.402L208.589 128.886L212.913 127.138L215.489 123.09L213.465 118.122L209.049 116.65ZM214.661 159.614L215.213 150.414L215.857 137.902L211.257 136.89L198.561 139.374L199.021 142.594L205.553 142.318L206.013 151.886L206.197 169.55L205.737 179.21L199.665 181.05L199.481 184.27L210.705 183.81L219.729 184.192L219.724 184.27L220.658 184.231L221.561 184.27L221.571 184.194L222.587 184.152L222.423 185.307L210.704 184.811L198.419 185.314L198.706 180.295L204.771 178.457L205.196 169.531L205.013 151.915L204.601 143.359L198.159 143.631L197.436 138.575L211.268 135.868L216.899 137.107L216.211 150.474L215.661 159.628L215.936 168.503L216.279 178.44L222.708 180.201L220.911 180.746L215.305 179.21L214.937 168.538L214.661 159.614ZM204.119 117.899L208.982 115.573L214.217 117.318L216.61 123.191L213.584 127.945L208.496 130.002L203.761 127.097L201.475 122.196L204.119 117.899Z" fill="black"/>
<path fill-rule="evenodd" clip-rule="evenodd" d="M167.012 141.95H166.368L166.276 137.626L162.781 136.614L150.084 139.098L150.544 142.318L157.076 142.042L157.536 151.886L158.089 172.402L157.72 192.55L157.26 202.21L151.188 204.05L151.005 207.27L162.229 206.81L173.452 207.27L173.912 204.05L167.197 202.21L166.46 191.538L166.184 183.35L174.924 185.65L185.137 184.27L195.716 175.714L199.212 168.446L199.12 152.806L193.785 141.858L187.068 137.074L176.856 135.97L167.012 141.95ZM167.34 140.581L167.261 136.87L162.826 135.586L148.96 138.299L149.683 143.355L156.124 143.083L156.537 151.913L156.538 151.932L157.088 172.406L156.721 192.532L156.295 201.457L150.23 203.295L149.943 208.314L162.228 207.811L174.315 208.306L175.027 203.318L168.145 201.433L167.459 191.486L167.229 184.659L174.862 186.667L185.548 185.223L196.52 176.35L200.214 168.671L200.119 152.572L194.572 141.191L187.436 136.108L176.627 134.939L167.34 140.581ZM176.212 181.51L166.276 178.29L166.736 150.414L166.552 145.814L179.432 141.398L187.62 146.274L190.38 161.73L189.092 172.31L182.008 179.854L176.212 181.51ZM176.231 180.465L167.289 177.567L167.737 150.402L167.581 146.518L179.319 142.494L186.716 146.899L189.37 161.758L188.139 171.864L181.468 178.968L176.231 180.465Z" fill="black"/>
<path fill-rule="evenodd" clip-rule="evenodd" d="M119.456 141.95H118.812L118.72 137.626L115.224 136.614L102.528 139.098L102.988 142.318L109.52 142.042L109.98 151.886L110.532 172.402L110.164 192.55L109.704 202.21L103.632 204.05L103.448 207.27L114.672 206.81L125.896 207.27L126.356 204.05L119.64 202.21L118.904 191.538L118.628 183.35L127.368 185.65L137.58 184.27L148.16 175.714L151.656 168.446L151.564 152.806L146.228 141.858L139.512 137.074L129.3 135.97L119.456 141.95ZM119.783 140.581L119.704 136.87L115.27 135.586L101.404 138.299L102.126 143.355L108.568 143.083L108.981 151.913L108.981 151.932L109.532 172.406L109.165 192.532L108.739 201.457L102.674 203.295L102.387 208.314L114.672 207.811L126.758 208.306L127.471 203.318L120.589 201.433L119.903 191.486L119.673 184.659L127.306 186.667L137.992 185.223L148.964 176.35L152.658 168.671L152.563 152.572L147.016 141.191L139.88 136.108L129.071 134.939L119.783 140.581ZM128.656 181.51L118.72 178.29L119.18 150.414L118.996 145.814L131.876 141.398L140.064 146.274L142.824 161.73L141.536 172.31L134.452 179.854L128.656 181.51ZM128.675 180.465L119.732 177.567L120.181 150.402L120.025 146.518L131.763 142.494L139.16 146.899L141.814 161.758L140.583 171.864L133.912 178.968L128.675 180.465Z" fill="black"/>
<path fill-rule="evenodd" clip-rule="evenodd" d="M83.3838 180.406L76.4838 178.658L73.9998 171.206L77.2198 165.502L84.3038 162.65H92.3078L92.6758 175.07L83.3838 180.406ZM83.2369 179.337L77.2595 177.823L75.0889 171.311L77.9183 166.299L84.4975 163.65H91.337L91.6585 174.501L83.2369 179.337ZM100.864 180.038L100.22 167.066L100.128 147.378L97.1838 139.466L90.0078 135.97L78.1398 136.522L67.5598 139.65L69.9518 152.254L73.5398 151.518L73.8158 141.766L82.7398 139.65L90.1918 141.766L91.9398 147.47L92.3078 158.97L80.1638 159.43L69.1238 164.214L65.0758 171.39L67.0078 180.406L73.4478 185.098H83.0158L92.1238 179.67H92.5838L93.7798 185.098L106.568 183.994L107.212 180.958L100.864 180.038ZM101.822 179.166L108.411 180.121L107.392 184.926L92.992 186.17L91.852 180.996L83.2912 186.098H73.1221L66.1101 180.989L64.0186 171.229L68.4179 163.43L79.9384 158.438L91.2765 158.008L90.9446 147.635L89.3951 142.579L82.7171 140.683L74.7937 142.562L74.517 152.338L69.1586 153.437L66.4086 138.947L77.9724 135.528L90.2163 134.959L97.9815 138.742L101.127 147.195L101.22 167.039L101.822 179.166Z" fill="black"/>
<path fill-rule="evenodd" clip-rule="evenodd" d="M65.8613 181.05L58.7773 179.21L57.8573 150.138L58.7773 124.01L66.1373 122.17L66.3213 118.49L53.7173 119.41L42.4933 118.49L42.0333 122.17L49.1173 124.01L50.0373 147.47L34.2133 147.746L17.3773 147.47L18.2973 124.01L25.6573 122.17L25.8413 118.49L13.2373 119.41L2.01333 118.49L1.55333 122.17L8.63733 124.01L9.55733 150.138L9.00533 179.302L1.73733 181.05L1.18533 184.454L13.6973 183.81L24.4613 184.454L25.3813 181.05L18.0213 179.302L17.3773 152.53L34.2133 152.07L50.0373 152.53L49.1173 179.21L41.7573 181.05L41.5733 184.27L54.1773 183.81L65.4013 184.27L65.8613 181.05ZM54.175 184.811L66.2635 185.306L66.9777 180.307L59.7532 178.43L58.8579 150.14L59.7502 124.797L67.0991 122.96L67.3766 117.41L53.7218 118.407L41.6199 117.415L40.9322 122.917L48.1472 124.791L48.9981 146.488L34.2132 146.746L18.4167 146.487L19.2672 124.798L26.6191 122.96L26.8966 117.41L13.2418 118.407L1.13992 117.415L0.452156 122.917L7.66419 124.79L8.557 150.146L8.02014 178.51L0.856711 180.233L0 185.516L13.6931 184.811L25.2143 185.501L26.6158 180.315L19.0025 178.507L18.401 153.502L34.2124 153.07L49.0033 153.5L48.1439 178.422L40.8009 180.258L40.5123 185.309L54.175 184.811Z" fill="black"/>
<mask id="path-37-outside-1_7_617" maskUnits="userSpaceOnUse" x="180" y="191" width="175" height="71" fill="black">
<rect fill="white" x="180" y="191" width="175" height="71"/>
<path d="M216.72 252.376L218.744 242.624L221.688 242.9L222.976 259.92L215.708 259H186.636L185.256 259.92L181.944 259L182.496 253.94L206.324 225.604L211.568 209.32L209.728 200.028L198.872 198.096L190.5 200.028L189.304 211.528L185.44 212.356L183.14 196.532L199.516 192.76L214.052 195.06L220.492 201.316L221.412 213.092L213.224 228.456L189.948 253.02L190.224 253.296L216.72 252.376ZM261.577 256.24L252.285 260.104H244.373L233.241 255.136L226.525 243.36L224.869 233.424V218.152L231.585 202.604L242.165 193.68L251.917 193.312L259.829 196.716L268.109 206.284L271.513 224.776L270.869 239.036L266.729 249.524L261.577 256.24ZM243.637 197.912L237.841 206.468L234.161 223.028L235.909 240.324L239.037 251.18L244.925 256.332H251.457L257.253 252.008L260.013 243.636L261.853 226.984L258.909 205.18L251.733 197.176L243.637 197.912ZM307.61 252.376L309.634 242.624L312.578 242.9L313.866 259.92L306.598 259H277.526L276.146 259.92L272.834 259L273.386 253.94L297.214 225.604L302.458 209.32L300.618 200.028L289.762 198.096L281.39 200.028L280.194 211.528L276.33 212.356L274.03 196.532L290.406 192.76L304.942 195.06L311.382 201.316L312.302 213.092L304.114 228.456L280.838 253.02L281.114 253.296L307.61 252.376ZM352.375 249.616L343.635 257.804L330.663 260.472L323.119 259.736L315.207 257.068L317.507 241.98L320.819 242.44L322.383 254.308L329.927 255.964L340.231 253.296L344.371 242.624L342.163 233.976L334.987 228.548L327.535 227.444V223.764L334.619 222.2L340.323 216.864L342.071 207.664L339.587 201.132L332.779 197.82L323.487 199.844L321.739 211.16L318.427 211.62L316.311 197.084L330.387 192.76L341.427 194.232L349.523 201.04L350.535 209.044L348.511 215.944L344.463 221.648L336.827 224.776V225.144L347.591 228.18L353.387 236.644L352.375 249.616Z"/>
</mask>
<path d="M216.72 252.376L218.744 242.624L221.688 242.9L222.976 259.92L215.708 259H186.636L185.256 259.92L181.944 259L182.496 253.94L206.324 225.604L211.568 209.32L209.728 200.028L198.872 198.096L190.5 200.028L189.304 211.528L185.44 212.356L183.14 196.532L199.516 192.76L214.052 195.06L220.492 201.316L221.412 213.092L213.224 228.456L189.948 253.02L190.224 253.296L216.72 252.376ZM261.577 256.24L252.285 260.104H244.373L233.241 255.136L226.525 243.36L224.869 233.424V218.152L231.585 202.604L242.165 193.68L251.917 193.312L259.829 196.716L268.109 206.284L271.513 224.776L270.869 239.036L266.729 249.524L261.577 256.24ZM243.637 197.912L237.841 206.468L234.161 223.028L235.909 240.324L239.037 251.18L244.925 256.332H251.457L257.253 252.008L260.013 243.636L261.853 226.984L258.909 205.18L251.733 197.176L243.637 197.912ZM307.61 252.376L309.634 242.624L312.578 242.9L313.866 259.92L306.598 259H277.526L276.146 259.92L272.834 259L273.386 253.94L297.214 225.604L302.458 209.32L300.618 200.028L289.762 198.096L281.39 200.028L280.194 211.528L276.33 212.356L274.03 196.532L290.406 192.76L304.942 195.06L311.382 201.316L312.302 213.092L304.114 228.456L280.838 253.02L281.114 253.296L307.61 252.376ZM352.375 249.616L343.635 257.804L330.663 260.472L323.119 259.736L315.207 257.068L317.507 241.98L320.819 242.44L322.383 254.308L329.927 255.964L340.231 253.296L344.371 242.624L342.163 233.976L334.987 228.548L327.535 227.444V223.764L334.619 222.2L340.323 216.864L342.071 207.664L339.587 201.132L332.779 197.82L323.487 199.844L321.739 211.16L318.427 211.62L316.311 197.084L330.387 192.76L341.427 194.232L349.523 201.04L350.535 209.044L348.511 215.944L344.463 221.648L336.827 224.776V225.144L347.591 228.18L353.387 236.644L352.375 249.616Z" fill="url(#paint18_linear_7_617)"/>
<path d="M216.72 252.376L216.755 253.375L217.54 253.348L217.699 252.579L216.72 252.376ZM218.744 242.624L218.837 241.628L217.947 241.545L217.765 242.421L218.744 242.624ZM221.688 242.9L222.685 242.825L222.621 241.983L221.781 241.904L221.688 242.9ZM222.976 259.92L222.85 260.912L224.066 261.066L223.973 259.845L222.976 259.92ZM215.708 259L215.834 258.008L215.771 258H215.708V259ZM186.636 259V258H186.333L186.081 258.168L186.636 259ZM185.256 259.92L184.988 260.884L185.43 261.006L185.811 260.752L185.256 259.92ZM181.944 259L180.95 258.892L180.858 259.736L181.676 259.964L181.944 259ZM182.496 253.94L181.731 253.296L181.535 253.529L181.502 253.832L182.496 253.94ZM206.324 225.604L207.089 226.248L207.216 226.097L207.276 225.911L206.324 225.604ZM211.568 209.32L212.52 209.627L212.599 209.38L212.549 209.126L211.568 209.32ZM209.728 200.028L210.709 199.834L210.576 199.163L209.903 199.043L209.728 200.028ZM198.872 198.096L199.047 197.111L198.846 197.076L198.647 197.122L198.872 198.096ZM190.5 200.028L190.275 199.054L189.579 199.214L189.505 199.925L190.5 200.028ZM189.304 211.528L189.514 212.506L190.224 212.354L190.299 211.631L189.304 211.528ZM185.44 212.356L184.45 212.5L184.604 213.558L185.65 213.334L185.44 212.356ZM183.14 196.532L182.916 195.558L182.018 195.764L182.15 196.676L183.14 196.532ZM199.516 192.76L199.672 191.772L199.481 191.742L199.292 191.786L199.516 192.76ZM214.052 195.06L214.749 194.343L214.521 194.122L214.208 194.072L214.052 195.06ZM220.492 201.316L221.489 201.238L221.46 200.862L221.189 200.599L220.492 201.316ZM221.412 213.092L222.295 213.562L222.432 213.305L222.409 213.014L221.412 213.092ZM213.224 228.456L213.95 229.144L214.043 229.046L214.106 228.926L213.224 228.456ZM189.948 253.02L189.222 252.332L188.553 253.039L189.241 253.727L189.948 253.02ZM190.224 253.296L189.517 254.003L189.824 254.31L190.259 254.295L190.224 253.296ZM217.699 252.579L219.723 242.827L217.765 242.421L215.741 252.173L217.699 252.579ZM218.651 243.62L221.595 243.896L221.781 241.904L218.837 241.628L218.651 243.62ZM220.691 242.975L221.979 259.995L223.973 259.845L222.685 242.825L220.691 242.975ZM223.102 258.928L215.834 258.008L215.582 259.992L222.85 260.912L223.102 258.928ZM215.708 258H186.636V260H215.708V258ZM186.081 258.168L184.701 259.088L185.811 260.752L187.191 259.832L186.081 258.168ZM185.524 258.956L182.212 258.036L181.676 259.964L184.988 260.884L185.524 258.956ZM182.938 259.108L183.49 254.048L181.502 253.832L180.95 258.892L182.938 259.108ZM183.261 254.584L207.089 226.248L205.559 224.96L181.731 253.296L183.261 254.584ZM207.276 225.911L212.52 209.627L210.616 209.013L205.372 225.297L207.276 225.911ZM212.549 209.126L210.709 199.834L208.747 200.222L210.587 209.514L212.549 209.126ZM209.903 199.043L199.047 197.111L198.697 199.081L209.553 201.013L209.903 199.043ZM198.647 197.122L190.275 199.054L190.725 201.002L199.097 199.07L198.647 197.122ZM189.505 199.925L188.309 211.425L190.299 211.631L191.495 200.131L189.505 199.925ZM189.094 210.55L185.23 211.378L185.65 213.334L189.514 212.506L189.094 210.55ZM186.43 212.212L184.13 196.388L182.15 196.676L184.45 212.5L186.43 212.212ZM183.364 197.506L199.74 193.734L199.292 191.786L182.916 195.558L183.364 197.506ZM199.36 193.748L213.896 196.048L214.208 194.072L199.672 191.772L199.36 193.748ZM213.355 195.777L219.795 202.033L221.189 200.599L214.749 194.343L213.355 195.777ZM219.495 201.394L220.415 213.17L222.409 213.014L221.489 201.238L219.495 201.394ZM220.53 212.622L212.342 227.986L214.106 228.926L222.295 213.562L220.53 212.622ZM212.498 227.768L189.222 252.332L190.674 253.708L213.95 229.144L212.498 227.768ZM189.241 253.727L189.517 254.003L190.931 252.589L190.655 252.313L189.241 253.727ZM190.259 254.295L216.755 253.375L216.685 251.377L190.189 252.297L190.259 254.295ZM261.577 256.24L261.961 257.163L262.208 257.061L262.371 256.849L261.577 256.24ZM252.285 260.104V261.104H252.485L252.669 261.027L252.285 260.104ZM244.373 260.104L243.966 261.017L244.16 261.104H244.373V260.104ZM233.241 255.136L232.373 255.631L232.535 255.916L232.834 256.049L233.241 255.136ZM226.525 243.36L225.539 243.524L225.568 243.7L225.657 243.855L226.525 243.36ZM224.869 233.424H223.869V233.507L223.883 233.588L224.869 233.424ZM224.869 218.152L223.951 217.755L223.869 217.945V218.152H224.869ZM231.585 202.604L230.94 201.84L230.761 201.991L230.667 202.207L231.585 202.604ZM242.165 193.68L242.127 192.681L241.784 192.694L241.52 192.916L242.165 193.68ZM251.917 193.312L252.312 192.393L252.105 192.304L251.879 192.313L251.917 193.312ZM259.829 196.716L260.585 196.062L260.435 195.888L260.224 195.797L259.829 196.716ZM268.109 206.284L269.093 206.103L269.043 205.835L268.865 205.63L268.109 206.284ZM271.513 224.776L272.512 224.821L272.517 224.707L272.497 224.595L271.513 224.776ZM270.869 239.036L271.799 239.403L271.861 239.248L271.868 239.081L270.869 239.036ZM266.729 249.524L267.523 250.133L267.608 250.021L267.659 249.891L266.729 249.524ZM243.637 197.912L243.547 196.916L243.075 196.959L242.809 197.351L243.637 197.912ZM237.841 206.468L237.013 205.907L236.906 206.065L236.865 206.251L237.841 206.468ZM234.161 223.028L233.185 222.811L233.15 222.968L233.166 223.129L234.161 223.028ZM235.909 240.324L234.914 240.425L234.923 240.514L234.948 240.601L235.909 240.324ZM239.037 251.18L238.076 251.457L238.158 251.739L238.379 251.933L239.037 251.18ZM244.925 256.332L244.267 257.085L244.549 257.332H244.925V256.332ZM251.457 256.332V257.332H251.789L252.055 257.134L251.457 256.332ZM257.253 252.008L257.851 252.81L258.104 252.621L258.203 252.321L257.253 252.008ZM260.013 243.636L260.963 243.949L260.996 243.85L261.007 243.746L260.013 243.636ZM261.853 226.984L262.847 227.094L262.861 226.972L262.844 226.85L261.853 226.984ZM258.909 205.18L259.9 205.046L259.859 204.741L259.654 204.512L258.909 205.18ZM251.733 197.176L252.478 196.508L252.143 196.135L251.643 196.18L251.733 197.176ZM261.193 255.317L251.901 259.181L252.669 261.027L261.961 257.163L261.193 255.317ZM252.285 259.104H244.373V261.104H252.285V259.104ZM244.781 259.191L233.649 254.223L232.834 256.049L243.966 261.017L244.781 259.191ZM234.11 254.641L227.394 242.865L225.657 243.855L232.373 255.631L234.11 254.641ZM227.512 243.196L225.856 233.26L223.883 233.588L225.539 243.524L227.512 243.196ZM225.869 233.424V218.152H223.869V233.424H225.869ZM225.787 218.549L232.503 203.001L230.667 202.207L223.951 217.755L225.787 218.549ZM232.23 203.368L242.81 194.444L241.52 192.916L230.94 201.84L232.23 203.368ZM242.203 194.679L251.955 194.311L251.879 192.313L242.127 192.681L242.203 194.679ZM251.522 194.231L259.434 197.635L260.224 195.797L252.312 192.393L251.522 194.231ZM259.073 197.37L267.353 206.938L268.865 205.63L260.585 196.062L259.073 197.37ZM267.126 206.465L270.53 224.957L272.497 224.595L269.093 206.103L267.126 206.465ZM270.514 224.731L269.87 238.991L271.868 239.081L272.512 224.821L270.514 224.731ZM269.939 238.669L265.799 249.157L267.659 249.891L271.799 239.403L269.939 238.669ZM265.936 248.915L260.784 255.631L262.371 256.849L267.523 250.133L265.936 248.915ZM242.809 197.351L237.013 205.907L238.669 207.029L244.465 198.473L242.809 197.351ZM236.865 206.251L233.185 222.811L235.137 223.245L238.817 206.685L236.865 206.251ZM233.166 223.129L234.914 240.425L236.904 240.223L235.156 222.927L233.166 223.129ZM234.948 240.601L238.076 251.457L239.998 250.903L236.87 240.047L234.948 240.601ZM238.379 251.933L244.267 257.085L245.584 255.579L239.696 250.427L238.379 251.933ZM244.925 257.332H251.457V255.332H244.925V257.332ZM252.055 257.134L257.851 252.81L256.655 251.206L250.859 255.53L252.055 257.134ZM258.203 252.321L260.963 243.949L259.063 243.323L256.303 251.695L258.203 252.321ZM261.007 243.746L262.847 227.094L260.859 226.874L259.019 243.526L261.007 243.746ZM262.844 226.85L259.9 205.046L257.918 205.314L260.862 227.118L262.844 226.85ZM259.654 204.512L252.478 196.508L250.989 197.844L258.165 205.848L259.654 204.512ZM251.643 196.18L243.547 196.916L243.728 198.908L251.824 198.172L251.643 196.18ZM307.61 252.376L307.644 253.375L308.429 253.348L308.589 252.579L307.61 252.376ZM309.634 242.624L309.727 241.628L308.836 241.545L308.654 242.421L309.634 242.624ZM312.578 242.9L313.575 242.825L313.511 241.983L312.671 241.904L312.578 242.9ZM313.866 259.92L313.74 260.912L314.955 261.066L314.863 259.845L313.866 259.92ZM306.598 259L306.723 258.008L306.661 258H306.598V259ZM277.526 259V258H277.223L276.971 258.168L277.526 259ZM276.146 259.92L275.878 260.884L276.319 261.006L276.7 260.752L276.146 259.92ZM272.834 259L271.839 258.892L271.747 259.736L272.566 259.964L272.834 259ZM273.386 253.94L272.62 253.296L272.424 253.529L272.391 253.832L273.386 253.94ZM297.214 225.604L297.979 226.248L298.105 226.097L298.165 225.911L297.214 225.604ZM302.458 209.32L303.409 209.627L303.489 209.38L303.438 209.126L302.458 209.32ZM300.618 200.028L301.598 199.834L301.466 199.163L300.793 199.043L300.618 200.028ZM289.762 198.096L289.937 197.111L289.736 197.076L289.537 197.122L289.762 198.096ZM281.39 200.028L281.165 199.054L280.469 199.214L280.395 199.925L281.39 200.028ZM280.194 211.528L280.403 212.506L281.113 212.354L281.188 211.631L280.194 211.528ZM276.33 212.356L275.34 212.5L275.494 213.558L276.539 213.334L276.33 212.356ZM274.03 196.532L273.805 195.558L272.907 195.764L273.04 196.676L274.03 196.532ZM290.406 192.76L290.562 191.772L290.37 191.742L290.181 191.786L290.406 192.76ZM304.942 195.06L305.638 194.343L305.411 194.122L305.098 194.072L304.942 195.06ZM311.382 201.316L312.378 201.238L312.349 200.862L312.078 200.599L311.382 201.316ZM312.302 213.092L313.184 213.562L313.321 213.305L313.298 213.014L312.302 213.092ZM304.114 228.456L304.839 229.144L304.932 229.046L304.996 228.926L304.114 228.456ZM280.838 253.02L280.112 252.332L279.442 253.039L280.13 253.727L280.838 253.02ZM281.114 253.296L280.406 254.003L280.714 254.31L281.148 254.295L281.114 253.296ZM308.589 252.579L310.613 242.827L308.654 242.421L306.63 252.173L308.589 252.579ZM309.54 243.62L312.484 243.896L312.671 241.904L309.727 241.628L309.54 243.62ZM311.58 242.975L312.868 259.995L314.863 259.845L313.575 242.825L311.58 242.975ZM313.991 258.928L306.723 258.008L306.472 259.992L313.74 260.912L313.991 258.928ZM306.598 258H277.526V260H306.598V258ZM276.971 258.168L275.591 259.088L276.7 260.752L278.08 259.832L276.971 258.168ZM276.413 258.956L273.101 258.036L272.566 259.964L275.878 260.884L276.413 258.956ZM273.828 259.108L274.38 254.048L272.391 253.832L271.839 258.892L273.828 259.108ZM274.151 254.584L297.979 226.248L296.448 224.96L272.62 253.296L274.151 254.584ZM298.165 225.911L303.409 209.627L301.506 209.013L296.262 225.297L298.165 225.911ZM303.438 209.126L301.598 199.834L299.637 200.222L301.477 209.514L303.438 209.126ZM300.793 199.043L289.937 197.111L289.586 199.081L300.442 201.013L300.793 199.043ZM289.537 197.122L281.165 199.054L281.614 201.002L289.986 199.07L289.537 197.122ZM280.395 199.925L279.199 211.425L281.188 211.631L282.384 200.131L280.395 199.925ZM279.984 210.55L276.12 211.378L276.539 213.334L280.403 212.506L279.984 210.55ZM277.319 212.212L275.019 196.388L273.04 196.676L275.34 212.5L277.319 212.212ZM274.254 197.506L290.63 193.734L290.181 191.786L273.805 195.558L274.254 197.506ZM290.249 193.748L304.785 196.048L305.098 194.072L290.562 191.772L290.249 193.748ZM304.245 195.777L310.685 202.033L312.078 200.599L305.638 194.343L304.245 195.777ZM310.385 201.394L311.305 213.17L313.298 213.014L312.378 201.238L310.385 201.394ZM311.419 212.622L303.231 227.986L304.996 228.926L313.184 213.562L311.419 212.622ZM303.388 227.768L280.112 252.332L281.563 253.708L304.839 229.144L303.388 227.768ZM280.13 253.727L280.406 254.003L281.821 252.589L281.545 252.313L280.13 253.727ZM281.148 254.295L307.644 253.375L307.575 251.377L281.079 252.297L281.148 254.295ZM352.375 249.616L353.058 250.346L353.342 250.081L353.372 249.694L352.375 249.616ZM343.635 257.804L343.836 258.783L344.113 258.727L344.318 258.534L343.635 257.804ZM330.663 260.472L330.566 261.467L330.716 261.482L330.864 261.451L330.663 260.472ZM323.119 259.736L322.799 260.684L322.908 260.72L323.022 260.731L323.119 259.736ZM315.207 257.068L314.218 256.917L314.092 257.747L314.887 258.016L315.207 257.068ZM317.507 241.98L317.644 240.99L316.667 240.854L316.518 241.829L317.507 241.98ZM320.819 242.44L321.81 242.309L321.711 241.554L320.956 241.45L320.819 242.44ZM322.383 254.308L321.391 254.439L321.483 255.134L322.168 255.285L322.383 254.308ZM329.927 255.964L329.712 256.941L329.946 256.992L330.177 256.932L329.927 255.964ZM340.231 253.296L340.481 254.264L340.978 254.136L341.163 253.658L340.231 253.296ZM344.371 242.624L345.303 242.986L345.419 242.687L345.34 242.377L344.371 242.624ZM342.163 233.976L343.132 233.729L343.045 233.39L342.766 233.178L342.163 233.976ZM334.987 228.548L335.59 227.75L335.386 227.596L335.133 227.559L334.987 228.548ZM327.535 227.444H326.535V228.307L327.388 228.433L327.535 227.444ZM327.535 223.764L327.319 222.788L326.535 222.961V223.764H327.535ZM334.619 222.2L334.834 223.176L335.102 223.117L335.302 222.93L334.619 222.2ZM340.323 216.864L341.006 217.594L341.244 217.371L341.305 217.051L340.323 216.864ZM342.071 207.664L343.053 207.851L343.106 207.573L343.005 207.309L342.071 207.664ZM339.587 201.132L340.521 200.777L340.381 200.406L340.024 200.233L339.587 201.132ZM332.779 197.82L333.216 196.921L332.905 196.769L332.566 196.843L332.779 197.82ZM323.487 199.844L323.274 198.867L322.603 199.013L322.498 199.691L323.487 199.844ZM321.739 211.16L321.876 212.15L322.613 212.048L322.727 211.313L321.739 211.16ZM318.427 211.62L317.437 211.764L317.58 212.747L318.564 212.61L318.427 211.62ZM316.311 197.084L316.017 196.128L315.198 196.38L315.321 197.228L316.311 197.084ZM330.387 192.76L330.519 191.769L330.302 191.74L330.093 191.804L330.387 192.76ZM341.427 194.232L342.07 193.467L341.847 193.279L341.559 193.241L341.427 194.232ZM349.523 201.04L350.515 200.915L350.466 200.526L350.166 200.275L349.523 201.04ZM350.535 209.044L351.494 209.325L351.553 209.125L351.527 208.919L350.535 209.044ZM348.511 215.944L349.326 216.523L349.423 216.386L349.47 216.225L348.511 215.944ZM344.463 221.648L344.842 222.573L345.11 222.463L345.278 222.227L344.463 221.648ZM336.827 224.776L336.448 223.851L335.827 224.105V224.776H336.827ZM336.827 225.144H335.827V225.901L336.555 226.106L336.827 225.144ZM347.591 228.18L348.416 227.615L348.211 227.316L347.862 227.218L347.591 228.18ZM353.387 236.644L354.384 236.722L354.411 236.37L354.212 236.079L353.387 236.644ZM351.691 248.886L342.951 257.074L344.318 258.534L353.058 250.346L351.691 248.886ZM343.433 256.825L330.461 259.493L330.864 261.451L343.836 258.783L343.433 256.825ZM330.76 259.477L323.216 258.741L323.022 260.731L330.566 261.467L330.76 259.477ZM323.438 258.788L315.526 256.12L314.887 258.016L322.799 260.684L323.438 258.788ZM316.195 257.219L318.495 242.131L316.518 241.829L314.218 256.917L316.195 257.219ZM317.369 242.97L320.681 243.43L320.956 241.45L317.644 240.99L317.369 242.97ZM319.827 242.571L321.391 254.439L323.374 254.177L321.81 242.309L319.827 242.571ZM322.168 255.285L329.712 256.941L330.141 254.987L322.597 253.331L322.168 255.285ZM330.177 256.932L340.481 254.264L339.98 252.328L329.676 254.996L330.177 256.932ZM341.163 253.658L345.303 242.986L343.438 242.262L339.298 252.934L341.163 253.658ZM345.34 242.377L343.132 233.729L341.194 234.223L343.402 242.871L345.34 242.377ZM342.766 233.178L335.59 227.75L334.383 229.346L341.559 234.774L342.766 233.178ZM335.133 227.559L327.681 226.455L327.388 228.433L334.84 229.537L335.133 227.559ZM328.535 227.444V223.764H326.535V227.444H328.535ZM327.75 224.74L334.834 223.176L334.403 221.224L327.319 222.788L327.75 224.74ZM335.302 222.93L341.006 217.594L339.64 216.134L333.936 221.47L335.302 222.93ZM341.305 217.051L343.053 207.851L341.088 207.477L339.34 216.677L341.305 217.051ZM343.005 207.309L340.521 200.777L338.652 201.487L341.136 208.019L343.005 207.309ZM340.024 200.233L333.216 196.921L332.341 198.719L339.149 202.031L340.024 200.233ZM332.566 196.843L323.274 198.867L323.7 200.821L332.992 198.797L332.566 196.843ZM322.498 199.691L320.75 211.007L322.727 211.313L324.475 199.997L322.498 199.691ZM321.601 210.17L318.289 210.63L318.564 212.61L321.876 212.15L321.601 210.17ZM319.416 211.476L317.3 196.94L315.321 197.228L317.437 211.764L319.416 211.476ZM316.604 198.04L330.68 193.716L330.093 191.804L316.017 196.128L316.604 198.04ZM330.255 193.751L341.295 195.223L341.559 193.241L330.519 191.769L330.255 193.751ZM340.783 194.997L348.879 201.805L350.166 200.275L342.07 193.467L340.783 194.997ZM348.531 201.165L349.543 209.169L351.527 208.919L350.515 200.915L348.531 201.165ZM349.575 208.763L347.551 215.663L349.47 216.225L351.494 209.325L349.575 208.763ZM347.695 215.365L343.647 221.069L345.278 222.227L349.326 216.523L347.695 215.365ZM344.084 220.723L336.448 223.851L337.206 225.701L344.842 222.573L344.084 220.723ZM335.827 224.776V225.144H337.827V224.776H335.827ZM336.555 226.106L347.319 229.142L347.862 227.218L337.098 224.182L336.555 226.106ZM346.766 228.745L352.562 237.209L354.212 236.079L348.416 227.615L346.766 228.745ZM352.39 236.566L351.378 249.538L353.372 249.694L354.384 236.722L352.39 236.566Z" fill="black" mask="url(#path-37-outside-1_7_617)"/>
<defs>
<linearGradient id="paint0_linear_7_617" x1="295.864" y1="22.6413" x2="295.864" y2="72.4133" gradientUnits="userSpaceOnUse">
<stop stop-color="#13C41A"/>
<stop offset="1" stop-color="#A3F3A6"/>
</linearGradient>
<linearGradient id="paint1_linear_7_617" x1="266.258" y1="1.0213" x2="266.258" y2="71.0333" gradientUnits="userSpaceOnUse">
<stop stop-color="#13C41A"/>
<stop offset="1" stop-color="#A3F3A6"/>
</linearGradient>
<linearGradient id="paint2_linear_7_617" x1="245.582" y1="14.9133" x2="245.582" y2="72.4133" gradientUnits="userSpaceOnUse">
<stop stop-color="#13C41A"/>
<stop offset="1" stop-color="#A3F3A6"/>
</linearGradient>
<linearGradient id="paint3_linear_7_617" x1="222.284" y1="14.9133" x2="222.284" y2="72.4133" gradientUnits="userSpaceOnUse">
<stop stop-color="#13C41A"/>
<stop offset="1" stop-color="#A3F3A6"/>
</linearGradient>
<linearGradient id="paint4_linear_7_617" x1="186.986" y1="22.7333" x2="186.986" y2="72.4133" gradientUnits="userSpaceOnUse">
<stop stop-color="#13C41A"/>
<stop offset="1" stop-color="#A3F3A6"/>
</linearGradient>
<linearGradient id="paint5_linear_7_617" x1="138.248" y1="1.0213" x2="138.248" y2="72.4133" gradientUnits="userSpaceOnUse">
<stop stop-color="#13C41A"/>
<stop offset="1" stop-color="#A3F3A6"/>
</linearGradient>
<linearGradient id="paint6_linear_7_617" x1="74.5471" y1="3.59729" x2="74.5471" y2="71.4933" gradientUnits="userSpaceOnUse">
<stop stop-color="#13C41A"/>
<stop offset="1" stop-color="#A3F3A6"/>
</linearGradient>
<linearGradient id="paint7_linear_7_617" x1="170.794" y1="57.5983" x2="170.794" y2="127.518" gradientUnits="userSpaceOnUse">
<stop stop-color="#13C41A"/>
<stop offset="1" stop-color="#A3F3A6"/>
</linearGradient>
<linearGradient id="paint8_linear_7_617" x1="131.954" y1="79.2183" x2="131.954" y2="128.898" gradientUnits="userSpaceOnUse">
<stop stop-color="#13C41A"/>
<stop offset="1" stop-color="#A3F3A6"/>
</linearGradient>
<linearGradient id="paint9_linear_7_617" x1="358.119" y1="135.97" x2="358.119" y2="185.65" gradientUnits="userSpaceOnUse">
<stop stop-color="#13C41A"/>
<stop offset="1" stop-color="#A3F3A6"/>
</linearGradient>
<linearGradient id="paint10_linear_7_617" x1="324.848" y1="135.97" x2="324.848" y2="185.65" gradientUnits="userSpaceOnUse">
<stop stop-color="#13C41A"/>
<stop offset="1" stop-color="#A3F3A6"/>
</linearGradient>
<linearGradient id="paint11_linear_7_617" x1="289.142" y1="135.878" x2="289.142" y2="185.65" gradientUnits="userSpaceOnUse">
<stop stop-color="#13C41A"/>
<stop offset="1" stop-color="#A3F3A6"/>
</linearGradient>
<linearGradient id="paint12_linear_7_617" x1="245.392" y1="135.97" x2="245.392" y2="184.27" gradientUnits="userSpaceOnUse">
<stop stop-color="#13C41A"/>
<stop offset="1" stop-color="#A3F3A6"/>
</linearGradient>
<linearGradient id="paint13_linear_7_617" x1="210.291" y1="116.65" x2="210.291" y2="184.27" gradientUnits="userSpaceOnUse">
<stop stop-color="#13C41A"/>
<stop offset="1" stop-color="#A3F3A6"/>
</linearGradient>
<linearGradient id="paint14_linear_7_617" x1="174.648" y1="135.97" x2="174.648" y2="207.27" gradientUnits="userSpaceOnUse">
<stop stop-color="#13C41A"/>
<stop offset="1" stop-color="#A3F3A6"/>
</linearGradient>
<linearGradient id="paint15_linear_7_617" x1="127.092" y1="135.97" x2="127.092" y2="207.27" gradientUnits="userSpaceOnUse">
<stop stop-color="#13C41A"/>
<stop offset="1" stop-color="#A3F3A6"/>
</linearGradient>
<linearGradient id="paint16_linear_7_617" x1="86.1437" y1="135.97" x2="86.1437" y2="185.098" gradientUnits="userSpaceOnUse">
<stop stop-color="#13C41A"/>
<stop offset="1" stop-color="#A3F3A6"/>
</linearGradient>
<linearGradient id="paint17_linear_7_617" x1="33.7533" y1="118.49" x2="33.7533" y2="184.454" gradientUnits="userSpaceOnUse">
<stop stop-color="#13C41A"/>
<stop offset="1" stop-color="#A3F3A6"/>
</linearGradient>
<linearGradient id="paint18_linear_7_617" x1="269" y1="169" x2="269" y2="284" gradientUnits="userSpaceOnUse">
<stop stop-color="#13C41A"/>
<stop offset="1" stop-color="#A3F3A6"/>
</linearGradient>
</defs>
</svg>
