<svg width="1920" height="139" viewBox="0 0 1920 139" fill="none" xmlns="http://www.w3.org/2000/svg">
<path d="M233.899 49.1553L10.2054 81.9062C-9.43836 84.7823 -24 101.631 -24 121.484V144C-24 166.091 -6.09137 184 16 184H1991C2013.09 184 2031 166.091 2031 144V96.0614C2031 77.8334 2018.68 61.9107 2001.03 57.3396L1861.4 21.1662C1851.01 18.4751 1839.97 20.0708 1830.77 25.5947L1740.12 80.0271C1732.67 84.4968 1723.98 86.4228 1715.34 85.5142L1521.36 65.1032L1467.75 53.3997L1066.55 1.80085C1062.43 1.2702 1058.24 1.38642 1054.15 2.14533L803.718 48.6119L633.6 65.1032L241.358 48.768C238.865 48.6642 236.368 48.7938 233.899 49.1553Z" fill="#D9D9D9" stroke="#13C41A"/>
</svg>
